<svg xmlns="http://www.w3.org/2000/svg" viewBox="0 0 216.83 203.13"><defs><style>.cls-1{fill-rule:evenodd;}</style></defs><title>learningSage_logo2</title><g id="Layer_2" data-name="Layer 2"><g id="Layer_1-2" data-name="Layer 1"><path class="cls-1" d="M148.15,197.28c-6.1,1.88-12,4.5-18.56,4.53a9.32,9.32,0,0,1-2.24-.05c-.43-.09-.87-.34-.71-.82s.7-.28,1.07-.47c-3,1.59-6.11.63-9.17.47-1.44-.08-3.17,1.12-4.35-.7-1.19,2.37-1.77.13-2.53-.37a1,1,0,0,1-.28-1.34c1-1.28,1.14-2.27-.57-3.06-.46-.21-.27-.83.12-1,1.43-.7.71-2,1-3.08,2.23.21,4.5-1.26,6.75.22.37.24,1.68.32,1.29-1.18-.29-1.14,1.3-.73,1.63-1.48l1,0a1.31,1.31,0,0,1,.45.9c.68,2.39,1.58.78,2.43.13.27-.2.58-.49.88-.44,3.09.52,5.13-1.72,7.54-2.92,1.63-.82,3.39-.81,5.06-1.28.8-.22,1,.43,1.08,1a9.34,9.34,0,0,1,.13,2.24c-.12,1.73.32,2.26,1.9,1.05,1.88-1.43,3.86-.17,5.79-.05a7.16,7.16,0,0,0,4.27,1.11,7.29,7.29,0,0,1,1.74.12c.74.15,1.7.33,1.76,1.13.07,1.13-1.07,1-1.83,1.15a5.55,5.55,0,0,0-3.89.14,4.5,4.5,0,0,0-.7.25c-1.1.63-2.36-.59-3.36.23-.8.66-.89,2-2.14,2.39a5.12,5.12,0,0,0,3.56-.79,5.22,5.22,0,0,1,2.09-.76c.81-.15,1.89-.52,2.23.41s-1.11.72-1.42,1.38h0C149.57,196.82,148.76,196.84,148.15,197.28Z"/><path class="cls-1" d="M88,199.66l-2.56-.42a19.8,19.8,0,0,0-6-1.08c-.76,0-1.64.22-1.64-1.17,0-1.16-1.16-.74-1.87-.88l-.36-.08a1.17,1.17,0,0,1-.48-.55c-.4-2,1-2.42,2.5-2.61,2.43-.31,5,.08,7.09-1.77.83-.71,1.89,0,2.7.67a2.37,2.37,0,0,0,3.55-.14,2.82,2.82,0,0,1,3-.68c2,.51,3.79.8,5.78-.26,1.21-.64,2.77-.09,4.13.31a32.78,32.78,0,0,0,3,2.21c.81.9,2,1.53,1.9,3-.32,3.48-1.73,4.12-5.05,3s-6.78-1.78-10.12-.21A9.37,9.37,0,0,1,88,199.66Z"/><path class="cls-1" d="M104,191.32c-2.83-1.06-5.34,1.41-8.2.74a11.23,11.23,0,0,1-2-.5,1.68,1.68,0,0,0-2.36.55c-1.27,1.72-2.87,1.76-4.43.23-.66-.65-1.53-1.59-2.3-.63-1.86,2.3-4.35,1.49-6.65,1.7-1.51.13-2.87.4-2.6,2.42A1.55,1.55,0,0,1,74,197.09c-2.34-.38-4.32-1.78-6.58-2.4-2.51-.76-5.18-1-7.51-2.36l-.5-.46c-.61-1-1.1-2-2.43-2.15a2.36,2.36,0,0,1-1.74-1.56c-.19-.91-.39-1.9.8-2.24s2.61-.58,3.48.47a22.79,22.79,0,0,0,3.92,3.69,1.25,1.25,0,0,1,.23,2.06c.64.24,1.22-.1,1.82-.15a2.76,2.76,0,0,1,1.62.32,5.63,5.63,0,0,0,2.09.89,6,6,0,0,1,1.33.23c1.18,1,2,.59,2.61-.65.28-.57.33-1.26.83-1.73,1.9-1.6,4.25-1.65,6.54-1.85,1.14-.09,2.11-.22,2.59-1.44a1.62,1.62,0,0,1,1.55-1.07c1.28,0,.33-.95.68-1.32,1-.77,1.46.15,2.07.61a5.63,5.63,0,0,0,4.11.31l13,3c.42,1.19,1.19,0,1.77.25.41.16,1.07-.18,1.22.45s-.41.8-.81,1.06a5,5,0,0,1-2.35.3Z"/><path class="cls-1" d="M31.35,172.88a9.51,9.51,0,0,1-3.93-5.14,1,1,0,0,1,1.13-.7c.83.56,1.58,1.18,2.6.18a3.43,3.43,0,0,1,2.61-.58,5.78,5.78,0,0,0,4-1,3,3,0,0,1,3.29-.06c1,.45,1.75,1.28,3.21,1.46-1.87-.71-1.67-2.1-1.58-3.27.08-.92.9-.88,1.51-.4a18.49,18.49,0,0,0,2.11,1.31,12.15,12.15,0,0,0,1.18.64,2,2,0,0,1,.5.41c.16.91-.75,1.16-1.08,1.76s.1.85.45,1.15c1.08,1.14,1.76,3,3.92,2.09.66,1,2.52.88,2.35,2.61-.46.82-1.43,1.08-2,1.8-2.5.07-4.92.89-7.44.83a7.42,7.42,0,0,1-2.92-.49,5.83,5.83,0,0,0-2.66-.52c-2.57.14-5-.06-6.65-2.42C31.62,172,31.59,172.79,31.35,172.88Z"/><path class="cls-1" d="M30.45,142.14c.44.93.92,1.85,1.29,2.82.24.62,1.31,1.33-.42,1.82-.92.27.31.86.57,1.3a1.8,1.8,0,0,1-.33,2.65,1.67,1.67,0,0,1-.69.2c-.59,0-1.18-.14-1.77-.22a1.67,1.67,0,0,1-.93-.48c-.47-.53.24-1.39-.93-2-.81-.4-1.23-1.9-2.47-1s-.05,1.89.31,2.83c.63,1.67,1.89,3.24.89,5.2a11.93,11.93,0,0,1-1.68,1c-1.24.91-1.94.35-2.38-.9-.19-.71-.22-1.46-.47-2.16a4.56,4.56,0,0,1-.18-.75c.08-2.26-.81-3.85-3.11-4.46a2.22,2.22,0,0,1-1.59-1.76,10.82,10.82,0,0,1-.22-5.18c.41-2,1.77-2.69,3.67-2.63a4.59,4.59,0,0,0,1.69-.34A4.85,4.85,0,0,1,28.3,141s-.4.88.37.3C29.6,140.61,29.85,141.85,30.45,142.14Z"/><path class="cls-1" d="M46.39,165.25a10.69,10.69,0,0,1-3.3-1.7c.13.88.26,1.75.39,2.66.69.16.82-1.17,1.57-.63a1.11,1.11,0,0,1,.25.88c-.09.8-.76.72-1.34.8a3.84,3.84,0,0,1-2.72-.92c-1-.64-2.3-1.36-3.16-.31-1.19,1.46-2.61,1.16-4.07,1.23-1.25.06-2.3-.1-3.38,1.35s-1.51-.81-2.27-1.38c-1.44-2-1.38-3.23.63-4.24,1.14-.57,2.06-2.77,3.94-.94.35.33.9-.54,1.12-1.09.68-1.76.51-3.62.65-5.44,0-.18.18-.35.16-.38-1-1.17-1-1.17.69-1.84a3.54,3.54,0,0,1,2.8.95l1.48,1c.64.46,1.5.71,1.69,1.64,0,.43-.87.88-.17,1.23,1.47.74,2,2.41,3.31,3.24C45,162.79,46.6,163.61,46.39,165.25Z"/><path class="cls-1" d="M88,199.66a29.73,29.73,0,0,0,8.23-2.24,1.91,1.91,0,0,1,1.46,0c2.17,1.32,5-.43,7.06,1.71.55.57,2.22.63,2.43-.17.32-1.19,1.39-2.41.58-3.8-.37-.63-1.23-.91-1.24-1.78a2.36,2.36,0,0,1,.25-.87c.1-.3.19-.6.28-.91.61-1.65,1.73-1,2.78-.62.44.19.79.63,1.36.41a.87.87,0,0,1,.83,0c.57,1.45,2,3.12-2,3.6,3.17.68,4.07,1.46,2,3.54-1.41,1.39,1.73,1.14.91,2.67.87-.41.23-2.61,1.78-.88a1.66,1.66,0,0,0,2.08.21,2,2,0,0,1,2.5.11c.57.34,1.81,1,2-.68,0-.41.56-.57.72-.26,1.18,2.3,2.91.89,4.46.74a4.48,4.48,0,0,1,2.17.29l-1.67.36c.89.65,2-.1,2.65.78l0,0c-6,.67-12,1.27-18,0l-2,0a10.51,10.51,0,0,1-4.5,0c-1-.53-2.19.26-3.13-.53-2.11-.5-4.35-.22-6.41-1l-1,0c-1.5.29-3-.53-4.45-.17a1.5,1.5,0,0,1-1.58-.28Z"/><path class="cls-1" d="M106,11.77l-.24.08h-.24c-2,.62-4.26.06-6.19,1.14-.41,0-.77-.28-1.17-.31-3.27-.21-3.59-.66-2.79-3.89A1.29,1.29,0,0,1,97,8.59c2.21,1.67,3.53.16,4.88-1.29,1.46-.41,2.19,1,3.39,1.31,2.24-1.27,4.44-2.3,6.78-.12.77.72,1.2.08,1.3-.71a2.35,2.35,0,0,0-1.16-2.33,1.82,1.82,0,0,1-.82-2.55.78.78,0,0,1,.62-.26c1.92,1,4.38.82,6,2.65.48.54,1.26.06,1.82-.3a3.59,3.59,0,0,1,2.57-.67c1.25.26,2.55.38,3.4,1.52a1.74,1.74,0,0,1,.28,1c.14,1-1,1.24-1.21,2.06.64,1.08-.17,1.62-.9,1.93-2.37,1-5.28,2.41-7.38,1.25-3.14-1.73-6,.18-9-.59-.14,0-.32.07-.49.07C106.2,11.51,106.2,11.51,106,11.77Z"/><path class="cls-1" d="M8.48,125.1c-.25-3-.51-6-.76-9-.51-1.67.18-3.44-.4-5.1A5.49,5.49,0,0,0,7,108.57a.93.93,0,0,1,.81-.09c1.25.69,1.14,1.92,1.18,3,.08,2.31-.06,4.62.15,6.93a4.54,4.54,0,0,0,2.36,4.63,11.62,11.62,0,0,1,3.78-5.82c1.31-1.16,2.21-1.83,3.19.17.21.42.65.47,1.08.5,1.37.51,1.63,1.58,1.45,2.86s.39,2.5-.83,3.39c.23.24.6.1.84.31,1.63,2.11,1.43,2.06-.93,2.85a12,12,0,0,1-6.62.51,9.4,9.4,0,0,1-4-1.68C9.11,125.82,8.81,125.45,8.48,125.1Z"/><path class="cls-1" d="M146.2,7.79a.35.35,0,0,0,.31.09c.31.11.61.23.91.36a30.9,30.9,0,0,0,3.22,1.43c-.06,1.28,1.33.64,1.75,1.29l1.2.7c1.32.79,2.79,1.53,1.18,3.35-.79.34-1.51.58-2.12-.4-.33-.53-.45-.44-1,.07-1.25,1.18-2.75.5-3.94.17a45,45,0,0,0-9.54-1.75c-1-.06-2,0-2.63-1,.39-.82-.73-2.9,1.73-2,.47.18.27-.42.27-.67,0-.91-.16-1.81-.12-2.72.24-.68.82-.77,1.42-.81,1.33-.73,2.83.4,4.15-.41C144.31,5.9,145.16,7,146.2,7.79Z"/><path class="cls-1" d="M67.94,28.85l-9.39,3.6a1.74,1.74,0,0,1-2.47-.83,3.26,3.26,0,0,1,.54-3.84c.24-.22.54-.56.82-.51,2.47.45,3.39-1.34,4.5-3a5.13,5.13,0,0,1,5-2.08c.63,0,1.25,0,1.87-.07,1.45-.15,3-.7,3.47,1.54.4,2.07-.2,3.34-2.23,4A4.36,4.36,0,0,0,67.94,28.85Z"/><path class="cls-1" d="M59,14.51c.52-1,1.57-.93,2.43-1.23s1.81.06,2.64-.39l1.35-1.09a3.19,3.19,0,0,1,1.23-.89l.78-.08c2-1,3.63-2.51,5.64-3.44,1.06-.49,2.08-.77,2.53.77-.58.76-1.78,1.4-.47,2.51.22.19.41.58.77.22,2.57-2.55,4.27,0,6.23,1,0,1.63-1,2.31-2.4,2.49a5,5,0,0,0-2.52.71,5.37,5.37,0,0,1-.69.31,6.61,6.61,0,0,1-4.6.5c-1.17-.32-2.47.18-3.71.33-2,.24-4.18.83-5.76-1.23-.53-.69-1.2-.27-1.84-.14S59.32,15.54,59,14.51Z"/><path class="cls-1" d="M48.42,22.41c.25-.4.45-.87,1-.94,2.22-1.58,4.86-2.12,7.34-3.06,1.58-.1,3.2-1.17,4.73.17.65,2.12-.54,3.32-2.34,3.57-2.47.34-4.5.9-6,3.23-.94,1.48-2.89,2.19-3.94,3.73-.26.43-.59.8-.86,1.22-1.77,2.68-2.65,2.82-5.27.77-1.2-2.11.65-3.45,1.3-5.09,0-.25.07-.52.45-.42C46.51,25,47.33,23.57,48.42,22.41Z"/><path class="cls-1" d="M191.78,36.4c-.09.93-.13,2,.6,2.56,2.92,2.15,4.12,5.75,6.93,8,.64.39.85,1.17,1.47,1.57l2.05,2.44c1.14.53.4,1.78,1,2.52-.08.89-.85,1.91.52,2.5a.41.41,0,0,1,.13.41c0,.14-.09.21-.13.21-2.66-.31-3.95-2.6-5.8-4.06-.3-.24-.42-.7-.76-.94-.23-.53-.67-1-.52-1.62A5.87,5.87,0,0,0,195,47.39c-.21-.13-.55-.25-.59-.43-.57-2.64-3.43-4.19-3.39-7.11a2,2,0,0,0-1.27-2c-.89-.4-1.6-.9-1.51-2C189.79,34.69,190.81,34.84,191.78,36.4Z"/><path class="cls-1" d="M201.3,66.48a7.41,7.41,0,0,1-1-3c.3-1.37,2-2.07,3.86-1.33a2.21,2.21,0,0,0,2.48-.22c1.87-.81,1.82,1.05,2.55,1.82a16.56,16.56,0,0,1,.47,2.43c0,1.33.84,2.33,1.35,3.46a5.67,5.67,0,0,1,.92,3c-.09,1-.35,1.75-1.53,1.76a1.61,1.61,0,0,1-.66-.28c-1-1.83-1-1.83-3.27.49a1.22,1.22,0,0,1-.68.1,3.23,3.23,0,0,1-2-3.11c0-1.86-1.27-3.27-1.43-5.07C202.25,65.58,201.66,66.32,201.3,66.48Z"/><path class="cls-1" d="M122.59,189.82v-.93c2.27-1,4.73-1.2,7.1-1.78a57.91,57.91,0,0,0,11.91-4.44c.82.59.12,1.61.67,2.42,1.09-.45.66-1.64,1.21-2.27.29-.33.62-.64,1.05-.49s.42.51.4.85a5,5,0,0,0,.67,3.6,4.17,4.17,0,0,1,.37.56c.05,1.17,1.67,1.27,1.69,2.47a5,5,0,0,1-2.17,0c-1.3-.4-2.72-.62-3.71.82a1.24,1.24,0,0,1-1.73.49,1.33,1.33,0,0,1-.67-1.7c.57-1.23-.1-2.44.05-3.48-3.41-.43-5.9,2.19-9.07,2.82-.17.74,1,.38,1,1.26-1.84.86-3.93-.91-5.77.3A2,2,0,0,1,122.59,189.82Z"/><path class="cls-1" d="M76.47,14.85H77a3.18,3.18,0,0,1,2.39-.48c2,.23,2.84-2.38,3.64-2.26a3.91,3.91,0,0,0,4-1.53c.16-.19.28-.41.44-.6,2.31-2.76,5-3.13,8.12-1.14A4.37,4.37,0,0,1,95.67,10c-.27,1.62,0,2.69,2,2,.79-.26,1.27-.07,1.38.8.17.12.22.24.16.35s-.13.17-.19.17l-.1.1-.14,0c-1,.34-1.93-.17-2.89-.14-.68-.32-1.31-1.32-2.06-.11C90.32,15.88,86,16,81.92,17a8.11,8.11,0,0,0-3.87-.47c-1.36-.14-2.49,1.39-3.94.53C74,15.39,75.92,15.85,76.47,14.85Z"/><path class="cls-1" d="M6.48,104.59a63.11,63.11,0,0,1-.3-12.67c.12-2.56.92-5.15.3-7.76-.13-.53.5-.79.84-1.12.8-1,.33-2.13.48-3.21A13.37,13.37,0,0,1,8.2,78c.8-.35,1.25-.09,1.34.78-.43.87,0,2-.61,2.72.71-.65,0-1.93,1-2.55.65.11.81.62,1,1.15a14.18,14.18,0,0,1,.07,2.84,5,5,0,0,0,.28,3.57c1.08,2,1.27,3.91-.82,5.49a2.5,2.5,0,0,0-.9,2c-.34,1.61.52,3.76-2,4.42-.26.07.11.89.06,1.37-.19,1.54.14,3.12-.43,4.62A.54.54,0,0,1,6.48,104.59Z"/><path class="cls-1" d="M35.35,153.83c-.39.57-1.34.22-1.65,1,.52.63,1-.32,1.5-.06a18.64,18.64,0,0,1-.42,6.27c-.28.93-.7,1.92-1.83,2.13s-1-.87-1.29-1.54c-1.06,1.93-5.33,1.87-3.3,5.59l-.94.51-.51-1.5a4,4,0,0,0-1-3c-.62-1.09-2-1.89-1.28-3.47.32-.29.9-.13,1.11-.43,1.26-1.86,1.92-1.28,2.34,1.14a22.24,22.24,0,0,1,2-5.29,6.6,6.6,0,0,1,2.74-2.33,2.83,2.83,0,0,1,1.5-.08A1.22,1.22,0,0,1,35.35,153.83Z"/><path class="cls-1" d="M55.41,187.82c.6.53,1.05,1.48,1.91,1.42,2.09-.14,2.27,1,2.09,2.63-4-1.59-8.51-1.93-11.78-5.14-1-.4-1.49-1.3-2.25-1.93l-6.84-4.54a1.64,1.64,0,0,1,.21-.68,1.45,1.45,0,0,1,1.28-.52c2.23.92,4.61,1.33,6.85,2.23a7.8,7.8,0,0,1,2.87,1.92c.66.7,1.09,1.68,2.36,1.45.4-.08.73.38.91.76.36.74,1,1.54-.16,2.18C53.73,187.4,54.62,187,55.41,187.82Z"/><path class="cls-1" d="M147.66,189.81c-1-.59-2.49-.75-2-2.5.9-.87,2-.67,3.06-.57a1.64,1.64,0,0,1,1.06.59c1.52,2.4,3.67,2.37,6.07,1.66s3.3-2.63,4-4.74a2.76,2.76,0,0,1,0-1.75,1.34,1.34,0,0,1,.48-.52c3-.5,4.65.53,4.74,3.33,0,1.51-1.42,2.62-2.7,3.23a4,4,0,0,0-2.31,2.25c-1,1-1.79,2.13-3.38,2.05a11.41,11.41,0,0,1-2.34,1.18,1.12,1.12,0,0,1-.81-.57.59.59,0,0,1,.11-.62c.31-.63,1.05-.36,1.59-.76-1-1.08-2.24-.71-3.39-.74C150.27,191.3,148.71,191.27,147.66,189.81Z"/><path class="cls-1" d="M21.82,153.22c.74.52.43,1.31.5,2a2.19,2.19,0,0,1-2,.95c-2.54-2.8-4.05-6.22-5.79-9.51-.09-2.51-1.36-4.69-1.92-7.07a.77.77,0,0,1,.33-.61A1.25,1.25,0,0,1,14,139a2.3,2.3,0,0,1,.93,1.74c.09-.38,0,.06,0,0-.12-1.66,1.06-2.18,2.29-2.44s2.45-.89,3.08.82c-2.95.08-3.46.59-3.52,3.5,0,2.24-.19,4.5,2.71,5.25s2.23,3.23,2.3,5.3Z"/><path class="cls-1" d="M215.88,84.49c.91,1.54.36,3.23.42,4.84.12,2.91,0,5.82,0,8.73-.18,2.62-1.86,1.78-3.33,1.43-1.35-1.15-1.33-3-2.14-4.4a2.28,2.28,0,0,0,.55-1.26,3.16,3.16,0,0,1-.53,1.27,11.66,11.66,0,0,1-.91-5.56c.5-.2.36-.64.42-1,.33-2.28.79-2.45,2.81-1.11,1.05,1.07-.39,3,1.43,3.92C216,89.2,214.35,86.52,215.88,84.49Z"/><path class="cls-1" d="M215.88,84.49c0,2,0,4-.16,6a3.18,3.18,0,0,1-1.28,2.31c-1.63-1.43-1.78-3.27-1.63-5.22-.19-1.45-2.5-1.27-2.31-3a1,1,0,0,1,.63-.72c1,0,1.12-.71,1.09-1.49a12.54,12.54,0,0,1,0-1.37,11.67,11.67,0,0,0-.35-6,4.66,4.66,0,0,1,.21-3.34c.58-.47.87-.11,1.1.39A60.78,60.78,0,0,1,215.88,84.49Z"/><path class="cls-1" d="M160.08,190.79c.58-1-.42-1.86-.37-3.11.8.39,1.41,1.63,2.36.52.83-1,2.29-1.7,2.54-2.76.38-1.57-2.1-3.14-4.41-3.15-.88-.9-2.38-1.34-2.22-3a1.49,1.49,0,0,1,1.54-.82,3.68,3.68,0,0,1,1.34.56c2.72,2.69,5.27,3.07,7.61,1.12a1.07,1.07,0,0,1,.93-.74c.48-.08,1,0,1.4-.37a6.1,6.1,0,0,0,.34-.54c1.62-1.52,1.86-1.47,3.27.75-1.26,1.77-3.4,2.52-4.8,4.13a1.48,1.48,0,0,1-.56.37c-.46.33-1.19.28-1.37,1-2.09,2.35-4.06,4.85-7.15,6h-.23Z"/><path class="cls-1" d="M47.41,39l-3,3.45a8.92,8.92,0,0,0-5.75-.78c-2.14.47-3.52-1-5.22-1.66-.39-.14-.34-.69-.17-1.1a1.53,1.53,0,0,1,.62-.41c2.12-.41,4.28-.13,6.42-.21,2.83-.11,3.26-.62,2.81-3.41,1.25-1.6,2.89-.3,4.31-.59,2-.27,2,1.79,3,2.67A2.47,2.47,0,0,1,49,38C48.42,38.25,47.79,38.4,47.41,39Z"/><path class="cls-1" d="M43.39,30.89c1.25.34,2.69,2.21,3.67.34.52-1,1.35-1.48,1.83-2.35A6,6,0,0,1,52,31.12c.85-.64.29-2.66,2.33-2.12.81.22.38-.84.58-1.29.57-1.31,1.18-1.56,2-.18,0,.12,0,.23,0,.35-1.13,3.16-.86,3.91,1.63,4.57l-5.64,3c-.87.33-2.15,1.92-2.07-.67,0-.66-.28-.77-.88-.81-.9,0-1.77.22-2.66.12-.95-.3-1.95-.37-2.89-.63C43,33.05,42.47,32.23,43.39,30.89Z"/><path class="cls-1" d="M9.3,125.65c2,1.75,4.76,1.11,7,2.22.79.4,1.22-.25,1.77-.57s1.3-1.09,1.68-1c3.42,1.35,1.23-.84,1.11-1.7a5.54,5.54,0,0,1,.21-.57,11.73,11.73,0,0,0,.35-2.12c.08-.45.2-.89.25-1.34.11-.84-.05-1.76.68-2.42.84,2,.4,4,0,6a2.74,2.74,0,0,0,.49,2.51,3.5,3.5,0,0,1,.7,2.35,1.06,1.06,0,0,1-1.3.45c-1.25-.42-1.64.13-1.69,1.29s-.81,1.72-2,1.72a1.79,1.79,0,0,1-.63-.28c-1.28-1.78-3.68-1.69-5.21-3.14-.49-.47-1.42,0-1.61,1,0,.41,0,.83-.06,1.23s-.1.87-.63.87a.85.85,0,0,1-.85-.75C9.46,129.47,8.63,127.6,9.3,125.65Z"/><path class="cls-1" d="M9.3,125.65l.78,6.16.42-.06c-.07-.87-.13-1.73-.2-2.59,1.84-1,2.94.39,4.11,1.37s0,1.79-.22,2.69c.43,0,.79-.31,1.21-.2.85.55,1.76.21,2.65.2s1.6.38,1.37,1.46c.84-.56,1.08-2.41,2.68-2.14a1.88,1.88,0,0,1,1.38,1.88C21.13,137,18.12,137,15,136.48c-1.17-.28-2.55,0-3.46-1-1.26-1.39,0,1.09-.74.45-1.94-3.37-2.05-7.13-2.35-10.86Z"/><path class="cls-1" d="M145.15,187.31a4.34,4.34,0,0,1-.55-4.65c-1,.23-.86.87-.95,1.39s.4,1.66-.49,2a2.49,2.49,0,0,1-1.84-.46c-1-.69.33-1.23.28-1.89,0-.33,0-.66,0-1a25.24,25.24,0,0,1,5.92-3.94,6,6,0,0,1,2.44-.37c.85.08,1.71.32,1.86,1.31s-.67,1-1.26,1.29a7.63,7.63,0,0,0-1.5.85,1.3,1.3,0,0,0-.65,1.27C148.75,185.61,147.48,186.85,145.15,187.31Z"/><path class="cls-1" d="M43.38,34.9c-.24,1.13,2,1,1.26,2S43,39.17,41.09,39a70.06,70.06,0,0,0-7.25-.07c-.33-2,1.25-1.45,2.2-1.6,1.62-.26,3.23-.36,2.38-2.76-.08-.21.56-.67-.25-.25-1,.51-1.92.81-2.16-.77.32-1.07,1.26-1.64,1.93-2.43l1.43-1.21c.28-.37.53-.83,1.13-.5C41.5,31.2,41.32,33.63,43.38,34.9Z"/><path class="cls-1" d="M19.32,52a4.08,4.08,0,0,1,2.49-3.15c1.65-.63,2.09-2.49,3.55-3.27a1.26,1.26,0,0,1,.35,1c-1,3.6-.91,3.74,1.78,4.31,1.69.13,3.16,1,4.74,1.45a3.3,3.3,0,0,1,1,.39,1.06,1.06,0,0,1,.39.56c-.12,2-1.37,1.85-2.78,1.58-1.21-.22-2.44-1.13-3.67,0-1.71.61-2.6-.83-3.81-1.49-1.12-2-2.24-.11-3.37,0C19.29,53.1,18.79,52.8,19.32,52Z"/><path class="cls-1" d="M165.72,171.39a.86.86,0,0,1,.47-.14,8.93,8.93,0,0,0,3-1.43c.31-.2.62-.4.94-.59a1.06,1.06,0,0,1,1-.16,5.6,5.6,0,0,0,2.38,2.89c.84.47,1.84,1.12,1.74,2.41-.7.6-1.72.51-2.42,1.1a2,2,0,0,1-1,.12c-.26,0-.49,0-.58.32-.72,2.12-1,2.19-2.74.77-.27-.23-.38-1.58-1.32-.28-.34.47-1.58-.56-2.46-.74C163.1,174.28,163.31,173.33,165.72,171.39Z"/><path class="cls-1" d="M112.05,191.33l-.49.49c-.65.27-1.07-.12-1.5-.5-.79.45-2.55-1.55-2.51,1-1.19.08-1-.79-1-1.49-.12-.32,1.38-.83-.07-.95-.62-.05-1.29.48-1.9.4-1.4-.18.11-.63,0-1A72.33,72.33,0,0,0,116,189c1.83-.26,3.72.94,5.56-.09.35.65.08.82-.57.92-.91.14-1.23.34,0,.69.7.21.15.63-.1.91a2.33,2.33,0,0,1-3.45.44c-.81-.74-2-.75-2.14-.48C114.1,193.1,113.12,192,112.05,191.33Z"/><path class="cls-1" d="M112.06,2.83l-.51,0a3.37,3.37,0,0,1-.61.36,2.7,2.7,0,0,1-1.06,0c-2.72-.27-5.45-.41-8.16-.8a31.15,31.15,0,0,0-8.56.76c-.84,0-1.6-.14-1.61-1.22L94,1.36a1.41,1.41,0,0,1,.83-.54,14.78,14.78,0,0,1,2.66,0l.64.15L99.54.76c3.88-1.28,7.87-.48,11.81-.68a14.13,14.13,0,0,0,3.43.24C117,.44,117.24.9,116.11,3A4.45,4.45,0,0,1,112.06,2.83Z"/><path class="cls-1" d="M206.8,62.45c-.9.88-1.61,1.24-3,.35a2.57,2.57,0,0,0-3.57.69,5.65,5.65,0,0,1-.59-4.43c.81-2.75-1.31-4.77-2-7.15a.29.29,0,0,1,.14-.46l6.44,5a3.33,3.33,0,0,1,1,1.38,1.6,1.6,0,0,1,.15,1.66c-2,.18-2,.18-3.05-1.46.33,1.86.57,2,2.85,2.12a1.6,1.6,0,0,1,1.27,1C206.74,61.58,206.53,62.07,206.8,62.45Z"/><path class="cls-1" d="M11.06,67.06q.93-2.28,1.88-4.57c1.58.46,1.46-1.55,2.58-1.77a1.36,1.36,0,0,1,1.49.73c.11.32.2.72,0,.95-1.52,1.62-.92,3.13.19,4.63.28.88.66,1.81-.28,2.51a1.51,1.51,0,0,1-2.2-.13c-.24.46.32.66.49,1,.73,1.45.12,2.09-1.32,2a8,8,0,0,1-3.13-.82,2.22,2.22,0,0,1-.56-.45,1,1,0,0,1,.17-1.26c1.19-.27.55-1.21.68-1.88C11,67.7,11.06,67.38,11.06,67.06Z"/><path class="cls-1" d="M10.35,71l.44,0c2.61,1.6,3.39,1.51,5.62,0,.89-.61,1.9-1.8,3.22-.57.46,1.42-.62,2.06-1.43,2.84-.92,1.44-1.84,2.58-3.93,1.69-1.06-.45-2.22.48-3.11,1.18s-1.92,1.22-2.8,1.93c0,.64,0,1.28-.08,1.92a.48.48,0,0,1-.81,0c.39-3,.36-6.16,2.08-8.87C9.75,70.68,10,70.68,10.35,71Z"/><path class="cls-1" d="M23.32,134.16c-1-1-1.81-1.57-2.87,0-.57.88-1.41,2-2.82,1.18-.14-1.09,1.47-.34,1.38-1.32-1-1.37-3,1.57-3.7-.89.68-1.28,1.63-1.77,3-1v0a1.63,1.63,0,0,0,2.31-1,3.43,3.43,0,0,1,2.66-2.05c-.14-.81-.29-1.62-.44-2.43,1.74,2.7,3.75,5.25,4.4,8.51C25.82,135.29,24.76,134,23.32,134.16Z"/><path class="cls-1" d="M106,11.77l-1.42-.94c2.72,0,5,0,7.31,0a5.45,5.45,0,0,0,1.94-.23c1.53-.58,1.53-.64,2.23.74.07.15-.14.43.23.49,1,.16,2.18-2.06,3.05.2,1-1.7,3-.9,4.42-1.78s-.13-1-.18-1.41c2-1.08,2.93.28,3.74,1.79,0,1.27-1.14.77-1.73,1.12a32.46,32.46,0,0,1-11,.66C111.79,12,108.9,12,106,11.77Z"/><path class="cls-1" d="M33.35,38.91c1.59,1,2.82,2.34,5.13,2.09,2-.22,4.46-1.19,5.9,1.4-1.32,2.63-3.56,4.51-5.46,6.66a1.16,1.16,0,0,1-.45-1c.3-1.84,1.75-2.82,3-4,1-1.14.26-1.41-.75-1.39-.64,0-1.22.64-1.87.53-1.62-.29-3.73.6-4.51-1.86-.14-.43-.88-.34-1.35-.45-.9-.3-1.7.38-2.59.24a1.71,1.71,0,0,1-1.28-1.12.81.81,0,0,1,.22-.66c1-.25,1.05-1.38,1.75-1.92.28-.18-.09,0,.21-.11,1-.43,1.9-2.16,2.93-1.35C35.54,37.05,33,37.71,33.35,38.91Z"/><path class="cls-1" d="M95.51,12.83c1.15-.17,2.17.4,3.26.58a44.58,44.58,0,0,0-13,4.32c-2.46,1.22-4,3.39-6.2,4.85-1.3-1.88.62-2.51,1.38-3.59.39-.7.37-1.6,1.06-2.14,1.25-1.56,3.2-1.25,4.79-1.43,1.94-.22,3.42-1.65,5.36-1.59,0-1.43,1.12-.89,1.86-1A1.18,1.18,0,0,1,95.51,12.83Z"/><path class="cls-1" d="M153.66,192.83c0,.16,0,.33,0,.49-.29.63.16.52.51.5.85-.31,1.54-1,2.52-1-1.83,1.81-4.3,2.43-6.54,3.48-.09-.75.62-.87,1.16-1.38-3.18-.42-5.57,3.33-9.07,1.19,1.39-.46,2.55-1,2.64-2.58,0-.5.77-1.28,1.22-1,2.17,1.24,4-.24,5.92-.61C152.92,191.74,153.14,192.5,153.66,192.83Z"/><path class="cls-1" d="M27.32,54.45c.51-1.82,1.57-.74,2.52-.52,1.3.29,2.92,1.67,3.52-.89a.78.78,0,0,1,1.06-.17c.42,1-.37,1.73-.53,2.6a8.82,8.82,0,0,1-3,5.45c-.8.67-.91,1.68-1.58,2.36a1.4,1.4,0,0,1-.35-.57,3.68,3.68,0,0,1,1.21-3c.56-.62-.41-.23-.45-.52-.44-.23-.76-.66-1.2-.84-1.77-.74-3-1.57-.85-3.3C27.72,55,27.43,54.67,27.32,54.45Z"/><path class="cls-1" d="M20.33,139.17c-3.22-1.16-4.83-.22-5.17,3.12-.48-1.09-.92-2.11-1.36-3.12-.44-.61-.13-1,.37-1.34a3,3,0,0,1,.76-.25c1.81-.16,3.65.11,5.44-.2a4.29,4.29,0,0,0,2.5-1.51c2.47-1.57,4.07-1.1,5.3,1.49.28.58.18,1.32.76,1.76,1,.78.78,2.13,1.52,3-1.42-.51-3.26-.47-3.36-2.65-1.84.42-3.22-3.06-5.35-.62C21.49,139.16,20.81,139.08,20.33,139.17Z"/><path class="cls-1" d="M38.89,179.8l-.35.46-1.17-.64c-.49-.84-.73-1.92-2-2-2.09-1-2.14-3.64-4-4.76,0-.47-.09-.94-.14-1.4a1,1,0,0,1,1.1.52c1.46,2.11,3.52,2.55,5.91,2.29a4.69,4.69,0,0,1,3.15.49,1.5,1.5,0,0,1-.06,1.19c-.39,1.07-1.53.93-2.25,1.47C40.11,178.3,39.34,179,38.89,179.8Z"/><path class="cls-1" d="M148.66,181.29c.58-1.1,1.83-.88,2.9-1.32-1-1.83-2.83-.59-4-1.24l.57-.49c1.49-1,3.31-.71,4.94-1.2a.83.83,0,0,1,1,.5c.5,1.81,1.22.74,1.92.18a1.12,1.12,0,0,1,.65-.13,3.2,3.2,0,0,1,1.56,1.7c.14,1.36,2.15,1.47,2,3h0a2.25,2.25,0,0,1-1.9-.25c-2.71-1.19-5.12-.07-7.51.95C149,183.77,148.54,183.48,148.66,181.29Z"/><path class="cls-1" d="M67.94,28.85c0-1.52,1.39-1.42,2.3-1.83,1.48-.67,2.25-3.12,1.25-4.24-.83-.92-1.69.15-2.54.08-.22-1.47,1-1.75,1.89-2.32a5.9,5.9,0,0,1,.67-.23,13,13,0,0,0,1.87-.68c1.79-.58,2.44-.05,2.41,1.84-.06,3-.06,3-1.82,4.42C72.39,27.75,70.23,28.42,67.94,28.85Z"/><path class="cls-1" d="M61.43,18.86c-1.67-1-3.34.43-5,0-1.06.49-1.79.28-2-1,.84-.64,1.46-1.6,2.57-1.87.88-.51,1.74-1.09,2.85-.71a6.25,6.25,0,0,0,6.32,2.21c1.11-.21,1.69.42,1.87,1.48a4.84,4.84,0,0,1-.28,2.69,1.08,1.08,0,0,1-1,.47,2.44,2.44,0,0,1-.69-.23C64,21.75,63,19.89,61.43,18.86Z"/><path class="cls-1" d="M74,25.89l2.18-2.62c-.24-.63-3.72.86-1-1.61a1,1,0,0,0,.14-1.36,1.1,1.1,0,0,0-1.55-.24,3.49,3.49,0,0,1-2.26.8c0-1.4,1.26-1.69,2.1-2.36a4,4,0,0,1,1.13-.27c2.36-.23,4.75-.64,6.79,1.12-.58,1.11-2.19,1.61-1.92,3.23Z"/><path class="cls-1" d="M125.62,11.74l1.5-.9a2.18,2.18,0,0,1,2.25-.58c2.11.53,2.62-.55,2.62-2.3-.2-.76-1.87-.6-1.2-1.9,1.7-.84,3.14.45,4.72.54a20.41,20.41,0,0,1,2.21.22c1,1.34-.06,2.91,1.12,4.95-1.67-1-2.88-2.17-3.24,0-1.33-.09-2.65,0-4,0Z"/><path class="cls-1" d="M43.38,34.9c-1.93.28-2-1.34-2.45-2.49a16,16,0,0,1-.55-2.87c0-.75.63-.85,1.11-1.11,1.11-.65,1.66-2,2.93-2.42.56,1.81-1.78,3-1,4.88-.2,1.46.34,2.22,1.9,2a2.59,2.59,0,0,1,2.6,1,.68.68,0,0,1,0,1Z"/><path class="cls-1" d="M131.62,11.81c1.32-.59,2.65-1.59,4,0a4.4,4.4,0,0,0,3.45,1c3.11-.27,6,.8,8.86,1.72.89.28,1.92-.27,2.86.24.11.06.67-.16.36-.31-1.27-.58-.29-1.31.05-1.29.71.06,2,.56,2,.86,0,1.47,1.07.42,1.46.78.18.76.18.81-.15.8a8.47,8.47,0,0,0-2.84.1C145,14.54,138.15,13.87,131.62,11.81Z"/><path class="cls-1" d="M4.62,68c.63,1.16,2.5,1.12,2.58,3s-1.39,2.6-2.45,3.65a4.2,4.2,0,0,1-2.48-.11c-1.65-1-2.89-2.18-1.94-4.35A1.73,1.73,0,0,1,2.81,70a4.94,4.94,0,0,1,.35.64c.34.66,1,1.12,1.53.55s-.2-1-.58-1.4-.65-.49-.87-.85C3.28,68,3.63,67.52,4.62,68Z"/><path class="cls-1" d="M33.35,38.91c-1.13-1.27,1.12-1.53.77-2.56-1.36-.54-1.63,1.83-3,1.13l4-3.94a1.29,1.29,0,0,1,1.22-.23c1.28,1.92,2,.28,2.95-.48a22.15,22.15,0,0,1,.34,2.81c.27,1.77-1.83,2-3.23,2.22-1,.16-2-.19-2.53,1Z"/><path class="cls-1" d="M59.42,15.35c-.83.13-1.39,1.29-2.43.67a.37.37,0,0,1-.1-.23c.33-.31.52-.83,1.12-.74.38-.09.47-.72,1-.54.83.6,1.34-.29,2-.46s1.27-.52,1.57.11C63.82,16.79,66.1,15.8,68,15.7s3.53-1,5.45,0c1,.52,1.89-.88,3-.84-.4,1.21-1.72,1.28-2.51,2a1.64,1.64,0,0,1-1.9.84c-2.35-.77-4.72-.27-7-.12S61.29,16.06,59.42,15.35Z"/><path class="cls-1" d="M20.32,156.17a2.9,2.9,0,0,1,2-.95c.38.85.73,1.74,1.75.54a2.11,2.11,0,0,1,1.77-.55.84.84,0,0,1,1-.11,1.14,1.14,0,0,1,.22.66c-1.15,1.1-2.4,2.14-2.25,4-.4,1.56,1.52,2.12,1.52,3.51.48.33.91.74.58,1.36-.22.41-.63.42-1,.13-.22-.6-1.43-.45-1.1-1.46a7.76,7.76,0,0,0-1.43-2.06Z"/><path class="cls-1" d="M75.45,8.32c-1.79-1.95-3.14,0-4.33.75a10.34,10.34,0,0,1-3.68,1.76c1.29-1.71,3.42-2.23,5-3.52.73-1.2,1.84-1.19,3-.95,1.26-.74,2.85-.64,4-1.59l.22.23c.15.8,1.21,1.23.92,2.22-.22.57-1.09.65-1.13,1.22s.56,1.59-.72,1.61-2.52.37-3.43-.84A.66.66,0,0,1,75.45,8.32Z"/><path class="cls-1" d="M212.93,99.49c.94-.87,2.91.64,3.33-1.43l.09,6.53c-.4,1.11-.61,2.2.48,3.08-.26.91-.53,1.82-.88,3.07-1.57-2.68-2.7-5-1.29-7.81a1.3,1.3,0,0,0-.25-1.78c-.62-.09-.72-.71-1.08-1.07Z"/><path class="cls-1" d="M210.82,84.52c0,1,.81,1.18,1.47,1.48s.93.85.52,1.57c-1.94-1.39-2-.08-2,1.38,0,.55.35,1.84-.89.59-.51-2.77-1.08-5.53-1.49-8.31a5.3,5.3,0,0,0-1.12-2.16c-1.25-1.54,0-1.37,1-1.45a2.08,2.08,0,0,1,1.35,1.25A17.11,17.11,0,0,1,210.82,84.52Z"/><path class="cls-1" d="M75.12,180.72c1,.85,2.66.15,3.35,1.58a2.93,2.93,0,0,0,3,.95h0c.65.55,1.63.49,2.19,1.2.15,1-.47,1.24-1.29,1.25s-1.49-1.06-2.22,0c-.5.64-1.11,1.16-1.92.65-1.47-.94-3-1.78-4.43-2.8-1.64-1.19.91-1.81.64-2.91A.78.78,0,0,1,75.12,180.72Z"/><path class="cls-1" d="M63.47,173.75c1.55.13,2.09,1.52,3,2.42.49,1.11-.17,1.4-1.07,1.51-1.36-.3-2.7-.69-4.08-1-1.75-.34-2.19-1.69-1.22-3.11-.75-1.42-.89-2.59,1.18-2.81,1.06.29,2.08.57,1.48,2.09C62.6,173.36,63.17,173.52,63.47,173.75Z"/><path class="cls-1" d="M165.72,171.39c.35.79-2.39,1.15-.29,2.27.31.17-.32.5-.74.56-2.08.31.42.69,0,1a1.33,1.33,0,0,1-.5.47,1.37,1.37,0,0,1-.71.22c-3.25-.41-6.32.48-9.4,1.28-.44-.19-1-.11-1.34-.45Z"/><path class="cls-1" d="M181.72,173.24l-4,4a.38.38,0,0,1-.57,0c-.43-.82.07-1.38.6-1.88a1.64,1.64,0,0,0,.34-2.16c0-1.26,1.39-1.78,1.63-2.93a2.62,2.62,0,0,1,1-1.14c1.15-.53,2.29-.91,3.27.3.24.77-.24,1.27-.67,1.8a3.84,3.84,0,0,1-.13.41A9,9,0,0,0,181.72,173.24Z"/><path class="cls-1" d="M63.47,173.75c-.6-.11-1.61-.15-1.15-1,.71-1.29-.52-1-.89-1.48-1.71-.95-3.47.66-5.19-.11-.76-.52-1.63-.94-2-1.89,0-.56.36-.77.84-.88a3,3,0,0,0,2-.49l.28-.1c3.07.69,5.17,2.87,7.43,4.76C64.89,173.63,62.71,172,63.47,173.75Z"/><path class="cls-1" d="M29.24,62.89a1.76,1.76,0,0,1,.06.39l0,.13-.12.06c-.39,1.07.22,2.27-.41,3.31-1.78,2.3-2.6,5-3.53,7.72a1,1,0,0,1-.61.27c-1.5,0-2.45-.43-1.92-2.2.3-1-.22-2.2.85-3,.42-1.2,2,1.17,2.31-.8.23-1.36,1.5-2.38,1.6-3.89C27.57,63.87,27.52,62.57,29.24,62.89Z"/><path class="cls-1" d="M28.93,139.12c-.83-.29-.87-1.14-1.24-1.76-1.09-1.79-2.38-2.73-4.37-1.2-2,.88-4,1.7-6.23,1.45-.91-.24-1.88-.41-2.29-1.44a.9.9,0,0,1,1.09-.39c2.83,1.06,5.15-.17,7.43-1.62,1.68-1.09,2.85-.22,3.92,1A7.75,7.75,0,0,1,28.93,139.12Z"/><path class="cls-1" d="M116.1,2.79c.45-1.37.27-2.13-1.49-2-1,.07-2.15.42-3.06-.45a13.83,13.83,0,0,1,6,0l2.37,0c2,.19,3.92.61,5.9.73a5.14,5.14,0,0,1,1.84.69c-.58,1.69-2,1.2-3.09,1a13.76,13.76,0,0,0-5.89.37,3.89,3.89,0,0,1-1.17.21A1.76,1.76,0,0,1,116.1,2.79Z"/><path class="cls-1" d="M44.38,161.74c-1.92-.89-2.34-3.61-4.86-3.56.3-1.33,1.49-.66,1.84-1.39.89-.74,1.36.09,1.94.51,1.46,2.33,4.41,2.83,6,4.95-.92.64-1.7-.35-2.58-.22S45.29,160.87,44.38,161.74Z"/><path class="cls-1" d="M46.88,161.75c1.08-1.11,1.54.83,2.46.5,3.13,1.2,5.12,4.06,8,5.54l-.1.09a2.21,2.21,0,0,1-1.91.62c-1.67-.11-2.65-1.51-4.05-2.14-.4-2-2.39-1.59-3.58-2.4C47.1,163.36,46.54,162.74,46.88,161.75Z"/><path class="cls-1" d="M22.32,118.2c0,1-.05,2-.07,3-.55,0-.76-.38-.94-.81-1.52-5.58-.61-11.22-.39-16.84,1-1.16,1-.06,1.29.55.62,3.21-.18,6.44.09,9.67C22.43,115.21,22.32,116.71,22.32,118.2Z"/><path class="cls-1" d="M127.55,1.87c-.52-.08-1.12,0-1.44-.57a1.26,1.26,0,0,1,1.49,0c1.66.06,3.22.91,4.93.56,1.22.59,2.68.33,3.85,1.09a3.72,3.72,0,0,0,2.06,1.26c1,.34,1.45,1.11.7,2.14-.5.09-1.13-.22-1.42.48-.6.72-1.41.45-2.16.43.66-1.41-.38-1.93-1.32-2.5-1.2-.63-2.81-.27-3.72-1.56-.23-.15.32-.53-.05-.48a4.49,4.49,0,0,1-2.38-.41A2.84,2.84,0,0,1,127.55,1.87Z"/><path class="cls-1" d="M201.3,66.48c.17-.57-.35-1.62.53-1.62a1.43,1.43,0,0,1,1.35,1.7c-.25,1.07-.46,2,1,2.23.34.06.61.47.42.76-1.38,2.11.23,3.45,1.22,5,.21.94.12,1.56-1.08,1.06C202.94,72.78,202.53,69.47,201.3,66.48Z"/><path class="cls-1" d="M64.94,177.28c.81,0,1.51-.07,1.55-1.11,1.3.66,1.82,2.36,3.46,2.56.52,1.35,1-.69,1.57,0l1.54.92c0,.12,0,.24-.07.36-1.95,2.37-3.15,2.5-5,.36-.89-1-2.06-.31-3-.77-.68-.33-1.5-.62-1.5-1.47S64.31,177.35,64.94,177.28Z"/><path class="cls-1" d="M15.32,61a11.08,11.08,0,0,0-.5,1.36c-.13.53,0,1.25-.77,1.31s-.64-.86-1.11-1.16l.41-1c-.32-1.1.62-1.7,1-2.53.34-.6.68-1.2,1-1.8a2.66,2.66,0,0,1,1.29-1.74c1-.18,2.23-1.62,3,.36.11,1.34-1.78,1.42-1.72,2.73-.48,1.17-2.28.77-2.57,2.17Z"/><path class="cls-1" d="M213.94,121.09a14.28,14.28,0,0,1-.72,1.59,1.15,1.15,0,0,1-1.56.32c-.58-.25-.94-.68-.58-1.39s.09-1.86.95-2.5c1.39-1,1.68-2.6,1.95-4.31,1.67,1.25-.18,2.57.32,3.73C213.82,119.33,214.3,120.27,213.94,121.09Z"/><path class="cls-1" d="M204.73,75.56c.88.18.68-.74,1.08-1.06h.51c1.06-.91,2.18-1.43,3.51-.49h0a4,4,0,0,1-1.49,4c-.72,0-1.53-.12-1,1C205.65,78.48,205.41,76.85,204.73,75.56Z"/><path class="cls-1" d="M183.28,171.3c-.13-.6.27-1,.5-1.51a3.76,3.76,0,0,1,.69-1.11c1.2-1.07-.65-1.94-.2-3,1.41.12,2.16-1.28,3.42-1.5.42-.38.85-.91,1.38-.17.29.41.5,1,0,1.32a3.3,3.3,0,0,0-1.27,2A12.8,12.8,0,0,1,183.28,171.3Z"/><path class="cls-1" d="M184.27,165.72c.75,1.09,2.48,2.05.44,3.49a3.45,3.45,0,0,0-3.08-1.74,9.47,9.47,0,0,0-1.3.19,3.09,3.09,0,0,1-.68,0,10.24,10.24,0,0,0-2.07-.12c-1.32-.3-2.84.29-4-.87C177.23,167,180.56,164.27,184.27,165.72Z"/><path class="cls-1" d="M153.13,11.89l-.92-.56a2.68,2.68,0,0,1,2.48-1c1.15,1.44,3.11,1.11,4.48,2.06,1.07.68,2.38.56,3.51,1,.73,1.22.64,2-1.05,1.95-.81,0-1.63,0-2.44,0a4.9,4.9,0,0,0-3.36-2.49C155.05,12.19,154,12.43,153.13,11.89Z"/><path class="cls-1" d="M14.8,136.17l2,1c-.48.72-1.47.41-2,1h-.47c-1.35-.89-1.27.28-1.49,1,0,.16,0,.32.05.47a.69.69,0,0,1-.05.92c-1.92-1-1.48-3-2-4.62.12-.84-.36-1.77.64-2.9C11,136.16,13.67,135.17,14.8,136.17Z"/><path class="cls-1" d="M111.6,201.84c6,.57,12-.37,18,0-2.07.91-4.35.53-6.48,1a15.88,15.88,0,0,1-5.5,0Z"/><path class="cls-1" d="M22.21,104.06l-.89-1c-1.1-1.28-.62-2.82-.71-4.27a15.09,15.09,0,0,1,0-6.72,19.19,19.19,0,0,1,.21-3.3c.38-.83.22-2,1.38-2.36.31.14.36.35.14.62C20.83,92.71,22.18,98.39,22.21,104.06Z"/><path class="cls-1" d="M47.89,34.89v-1c.68-1.23,2.2-.83,2.92-.78,1.89.11.35,1.59.46,2.59l1.64-.3a5.16,5.16,0,0,1-2.51,1.5c-.85-.38-2.57,0-1.56-1.92Z"/><path class="cls-1" d="M179.75,167.26h.49c.55,1.26-.44,1.4-1.23,1.59a16.78,16.78,0,0,1-3.25.1c-.53,0-1.07,0-1.6,0-1,.05-1.9.77-2.94.29l-1.07,0a6.78,6.78,0,0,1,3.47-2.55c1.52.26,3.13-.25,4.6.52C178.73,167.15,179.22,167.64,179.75,167.26Z"/><path class="cls-1" d="M22.34,87.05a1.35,1.35,0,0,1-.2-.42,2.79,2.79,0,0,1-.38-2.14A17.36,17.36,0,0,0,22,82.11a5.17,5.17,0,0,1,.39-.94,5.21,5.21,0,0,0,.26-2.35c0-.61,0-1.22,0-1.83a3.86,3.86,0,0,1,.38-1.86,2.52,2.52,0,0,1,1.74-.62h.48Q23.8,80.77,22.34,87.05Z"/><path class="cls-1" d="M153.13,11.89a4.33,4.33,0,0,1,3,.46c.71,1.12,1.93,1.94,2,3.44a16.3,16.3,0,0,1-6.49,0c.92-.73,2.06-.12,3-.51a.22.22,0,0,0,.09-.19c0-.07-.08-.13-.13-.2C155.84,13,153.73,12.83,153.13,11.89Z"/><path class="cls-1" d="M187.82,167.35c0-.8-.83-1.82.69-2.11.65-.12.46-.56.26-.92-.3-.52-.71-.14-1.08-.1.41-1.3,2.18-1.18,2.58-2.48,1.09-.15,1.55.34,1.46,1.41C191.11,165.19,189.35,166.16,187.82,167.35Z"/><path class="cls-1" d="M139.14,6.34c-.09-.83.19-1.87-1.32-1.69a1.43,1.43,0,0,1-1.71-1.31,1.9,1.9,0,0,1,1.45-.55,2.65,2.65,0,0,1,2.08,1,.56.56,0,0,0,.42,0c.38.28.86.18,1.27.36.78.31,1.91.22,1.81,1.56-.72-.64-1.06,2.63-2.09.15C140.75,5.2,140.1,7.49,139.14,6.34Z"/><path class="cls-1" d="M206.8,62.45c-.42-.17-.46-.52-.43-.9a1.55,1.55,0,0,0-.53-1.33.91.91,0,0,1-.45-.74c-.2-.49-.41-1-.62-1.45.06-.57,0-1.17.55-1.57l1.5,1.5c0,1,.79,1.22,1.5,1.53-.25,1.89.93,3.32,1.55,4.94-.57.36-.76-.13-1-.47C208,63.7,208.67,61.35,206.8,62.45Z"/><path class="cls-1" d="M34.41,53l-1,0v-.16a17,17,0,0,1,2.46-4.58c.69-.89,2-.54,3-.38l.06,1.14c-1.29,1.4-3,2.38-4,4.11A.43.43,0,0,1,34.41,53Z"/><path class="cls-1" d="M91.55,2A1.53,1.53,0,0,0,93,2.81c.25-.14.58,0,.53.18-.51,1.93-3.32,3-4.74,1.68-.85-.75-2.19.18-2.83-1,.52-1.23,1.49-1.16,2.53-.86Z"/><path class="cls-1" d="M54.42,17.89a2.86,2.86,0,0,0,2,1c-.61.89-1,1.67-2.5,1s-1.9,1.79-3.45,1.73c-.35,0-.72.38-1-.09A29.71,29.71,0,0,1,54.42,17.89Z"/><path class="cls-1" d="M152.73,176.77l1.47.08c.47.32,1.1.1,1.56.45a1.29,1.29,0,0,1,.43.5c-.29,2.61-2.25.53-3.15,1.38-.43-1,1-.71.69-1.39s-1-.19-1.53-.11c-1.36.21-2.73.38-4.11.56C149.34,176.81,151.14,177.13,152.73,176.77Z"/><path class="cls-1" d="M25.37,46.49c0-.31,0-.62,0-.94.73-1.61,1.16-3.38,2.47-4.68a1.27,1.27,0,0,1,.63-.32,1,1,0,0,1,1.1.72c-.69,1.92-2.31,3.37-2.71,5.5C26.7,47.52,25.77,47.21,25.37,46.49Z"/><path class="cls-1" d="M88.5,2.81l-2.58.94a3.55,3.55,0,0,0-.23.31,8,8,0,0,1-5.24.87c-.5-.78-.07-1.23.56-1.61a4.75,4.75,0,0,0,3-.5,4.49,4.49,0,0,1,4.51-.51Z"/><path class="cls-1" d="M30.84,150.71c1.21-.53,1-1.64,1.05-2.63,1.57.34,2.37,1.68,3.46,2.64.51.62.22,1.1-.28,1.53-1.18,0-2.19-1-3.44-.6C31.17,151.5,30.7,151.36,30.84,150.71Z"/><path class="cls-1" d="M143.14,5.77c-.31-1-1.43-.77-2-1.36a1.07,1.07,0,0,1,1.51-.09c1.11,1.23,3.73.92,3.55,3.47C144.78,7.71,144,6.7,143.14,5.77Z"/><path class="cls-1" d="M158.13,15.79a6.1,6.1,0,0,1-2-3.44c1.42.59,3.54.46,3,3Z"/><path class="cls-1" d="M12.83,140.58c0-.3,0-.61.05-.92.74,2.29,2.3,4.38,1.65,7C14.06,144.61,12.79,142.78,12.83,140.58Z"/><path class="cls-1" d="M59.91,192.33c2.51.77,5.21.92,7.51,2.36C64.78,194.35,62.07,194.2,59.91,192.33Z"/><path class="cls-1" d="M2.69,70.05l-2.36.13c.86-1.85,2-3.16,4.29-2.16a1.33,1.33,0,0,0-1.29.9c0,.09,0,.18,0,.28a1.62,1.62,0,0,1-.37.74Z"/><path class="cls-1" d="M208.84,64l1,.47c1.51.7,1.74,2.12,2,3.54-.63.32-.94-.26-1.38-.48A3.44,3.44,0,0,1,208.84,64Z"/><path class="cls-1" d="M150.56,9.88c.94.11,2,.44,2.11-1.07l2,1.5c-.78.45-1.43,1.23-2.48,1C151.84,10.64,150.28,11.31,150.56,9.88Z"/><path class="cls-1" d="M99,13.34l0-.52c1.94-1.89,4.34-.62,6.51-1Z"/><path class="cls-1" d="M169.23,183.32c1.25-1.85,3.24-2.79,5-4a.55.55,0,0,1,.59,0,.37.37,0,0,1-.09.53c-1.1,1.33-3.05,1.57-4,3.11C170.27,183.18,169.84,183.56,169.23,183.32Z"/><path class="cls-1" d="M91.51,186.29c-1.32,2-2.67.66-4,0-.15-.11-.2-.22-.15-.34s.09-.17.14-.17C88.81,186.18,90.29,185.17,91.51,186.29Z"/><path class="cls-1" d="M210.79,67.07l1.08.9c.69,1.26,1.62,2.44,1.35,4l-.89-.49c-.54-.16-.75-.61-1-1.06C211.4,69.28,209.92,68.37,210.79,67.07Z"/><path class="cls-1" d="M75.47,6.36l-3,.95c-.14-1.11.52-1.64,1.46-1.88C74.69,5.24,75.39,5.31,75.47,6.36Z"/><path class="cls-1" d="M35.35,153.83l-1-.73a.63.63,0,0,1,.58-.69c.93-.86,1.67.33,2.52.24l.92,1.6Z"/><path class="cls-1" d="M174.72,179.77a2.63,2.63,0,0,1-.05-.49c0-1.72.78-2.48,2.53-2.07l.51.06C176.67,178.05,176.15,179.45,174.72,179.77Z"/><path class="cls-1" d="M81.52,183.25l-2.4,1.12c-.08-.74.14-1.59-.65-2.07Z"/><path class="cls-1" d="M48.42,22.41c-.79,1.5-1.55,3-3.55,3.18Z"/><path class="cls-1" d="M37.43,152.65c-.86,1.36-1.82-1.14-2.69.07a.34.34,0,0,1,.11-.51c.17-.49.33-1,.5-1.49Z"/><path class="cls-1" d="M71.52,178.73c-.16.17-.39.32-.47.52-.24.57-.33,1.56-1.1,1.28-1.08-.4-.06-1.18,0-1.8A1.15,1.15,0,0,1,71.52,178.73Z"/><path class="cls-1" d="M36.31,33.31c-.38.2-.71.67-1.22.23a5.93,5.93,0,0,1,2.85-2.45A3.54,3.54,0,0,1,36.31,33.31Z"/><path class="cls-1" d="M7.47,80h.81c-.31,1,.8,2.48-1,3Z"/><path class="cls-1" d="M43.3,157.3l-1.94-.51-1.53-1.52C41.2,155.59,42.73,155.64,43.3,157.3Z"/><path class="cls-1" d="M169.21,169.82c-.71,1.1-1.5,2-3,1.43C167,170.25,168.11,170.11,169.21,169.82Z"/><path class="cls-1" d="M6.48,104.59l.31,0c1.74,1.12,1.56,2.48.52,3.95a1.23,1.23,0,0,0-.33.08C6.81,107.24,6.65,105.91,6.48,104.59Z"/><path class="cls-1" d="M191.73,163.15a3.07,3.07,0,0,0-1.46-1.41c.55-.61,1.15-1,2-.5a1.47,1.47,0,0,1-.06,2A2.34,2.34,0,0,1,191.73,163.15Z"/><path class="cls-1" d="M87.49,185.81c0,.17,0,.34,0,.51-.68-.26-1.08-1.11-2-.9-.86.39-1.37,0-1.66-.79l.12-.35C85,185.08,86.68,184.5,87.49,185.81Z"/><path class="cls-1" d="M25.92,164.74c1.28-.18.63-.9.43-1.49,1.74.7,1,1.88.56,3Z"/><path class="cls-1" d="M35.38,177.64c1.65-.33,1.87.77,2,2C36.77,178.89,36.33,178,35.38,177.64Z"/><path class="cls-1" d="M23.39,161.22c1.28.12,1.52,1,1.43,2.06A3.36,3.36,0,0,1,23.39,161.22Z"/><path class="cls-1" d="M28.8,66.78c.22-1.09-.31-2.28.41-3.31C29,64.57,29.67,65.77,28.8,66.78Z"/><path class="cls-1" d="M18.83,53c0-.19,0-.38,0-.56l.53-.48a.9.9,0,0,0,1,1c.08.82-.31,1.27-1.11,1.15C18.59,54,18.49,53.53,18.83,53Z"/><path class="cls-1" d="M34.41,53l.54.16a3.08,3.08,0,0,1-1.06,2.3C34.07,54.65,34.24,53.83,34.41,53Z"/><path class="cls-1" d="M10.35,71l-.8.12c-.16-.84.55-1.35.78-2a.36.36,0,0,1,.59-.1.88.88,0,0,1-.12,1A1,1,0,0,0,10.35,71Z"/><path class="cls-1" d="M148.15,197.28a1.84,1.84,0,0,1,2-.95C149.74,197.18,148.94,197.22,148.15,197.28Z"/><path class="cls-1" d="M83.52,184.4a3,3,0,0,1-2-1.16c1-.14,1.71.58,2.49,1v.2A.34.34,0,0,1,83.52,184.4Z"/><path class="cls-1" d="M47.41,39c0-1.13.84-1,1.54-1A1.87,1.87,0,0,1,47.41,39Z"/><path class="cls-1" d="M181.72,173.24a1.55,1.55,0,0,1,1.43-1.53A2.2,2.2,0,0,1,181.72,173.24Z"/><path class="cls-1" d="M213.33,100.08a1.76,1.76,0,0,1,1.08,1.07C213,101.9,213.43,100.7,213.33,100.08Z"/><path class="cls-1" d="M75.12,180.72l-.69.1c-.8.18-1.38,0-1.52-.93l.15-.24A3.07,3.07,0,0,1,75.12,180.72Z"/><path class="cls-1" d="M133.71,197c-.86,1.08-2,.78-2.23,1.84-.13.56-1,.72-1.23.48-1.58-1.91-4.17-.56-5.91-1.94-.56-.44-.89-.71-.4-1.34,1.13-1.43,4.76-1.81,6.23-.69C131.14,196.06,132,197.08,133.71,197Z"/><path class="cls-1" d="M122.59,189.82l3,.5c-.7.45-.55,2.17-1.91,1.49C123.07,191.51,121.51,191.24,122.59,189.82Z"/><path class="cls-1" d="M135.25,200.58c-.55.33-1.39.35-1.45.11-.18-.65.48-.24.76-.31S135,200.49,135.25,200.58Z"/><path class="cls-1" d="M107.05,192.82l-.5.51a2.46,2.46,0,0,1-2.51-2h0C105.65,190.63,106.37,191.68,107.05,192.82Z"/><path class="cls-1" d="M91.46,197.66c-.68.89-1.3.66-2.17.54A2.44,2.44,0,0,1,91.46,197.66Z"/><path class="cls-1" d="M72.91,179.89l1.52.93c1.06,1.67,1.06,1.67-1,2,1.85.93,3.57,1.61,4.85,3,.86.94,1.21-.19,1.76-.5a1.53,1.53,0,0,1,2,0c.7,0,1.41.05,1.56-.89a.82.82,0,0,1,.46.08,2.17,2.17,0,0,0,1.55.93c-.11.85.93.88,1.15,1.73-1.6,0-3.35-.26-3.39,2.14,0,.55-.76.55-1.24.52A19.7,19.7,0,0,0,74,191.32c-.77.2.06,4-2.15,1,0,.86-.66,1.23-1.36,1.52H69a25.47,25.47,0,0,1-.81-4.26c-.58,1.1.86,2.79-1.21,3.26l-1.5-.49a.46.46,0,0,1-.62,0c-.63-1.65-1.63-3.21-.9-5-1.05-.39-1.53.31-2.18.37-1.07.1-2,.1-2.06-1.39a2.93,2.93,0,0,0-1.57-2.65c-1.44-.82-1.08-2.88-2.72-3.69-.67-.33.39-1.25.63-2.14-2.9.92-3-2.09-4.62-3.11.08-1.29,1.38-1,2-1.51,2.63-1.59,5.17-1.92,7.52.51.58.82.58.87.3.85s-.45-.21-.69-.25a2.68,2.68,0,0,0-.67.07c.49,1.29,1.16,2.1,2.67,1.86a2.57,2.57,0,0,1,2.4,1c-.08.64-1.41.25-1,1a2,2,0,0,0,2,.92c1.42-.13,3-.94,3,1.7,0,.6,1.5.46,2.24.19A8.81,8.81,0,0,0,72.91,179.89Z"/><path class="cls-1" d="M51.4,174.77c.74-.29,1.43-.48,1.68.61.38,1.66,1,2.9,3,1.51a.77.77,0,0,1,1.09.26c.11.2-.07.62-.23.87-.36.55-.79,1-1.38,1.81,1.16,0,2.14.14,1.92,1.59a1.64,1.64,0,0,0,1.21,1.91,2.4,2.4,0,0,1,1.66,2.27c-.3,3.19,1.26,1.66,2.32.93,1.38-.95,2.31.3,2,.92-.91,1.81.46,3.25.31,4.87a2,2,0,0,1-2,0c-.5-.87-.5-.87,1-1-1.73-1.55-3.79-2.49-4.86-4.59-.6-1.15-3.27-.26-3.7,1.13H51.78c.44-.66,1.84-.56,1-1.77-.51-.78-.82-1.48-1.78-.45a.55.55,0,0,1-1-.32c-.5-3.33-3.6-3.52-5.79-4.25-1.52-.5-3-1.11-4.42-1.74.22-2.31.94-2.45,3.62-.6.55-1.1-.09-2.5.89-3.41,1.24-.31,2.88.79,3.68-1.07a.34.34,0,0,1,.6-.06c1.57,2.59.93-1.14,1.77-.61.63.22.34.84.55,1.24a.27.27,0,0,0,.21.11C51.26,174.89,51.33,174.81,51.4,174.77Z"/><path class="cls-1" d="M66.94,192.82c.84-.59.54-1.41.53-2.21a4.09,4.09,0,0,1,.41-2.72A7.42,7.42,0,0,1,69,193.82C68.08,193.9,67.64,193.1,66.94,192.82Z"/><path class="cls-1" d="M70.45,193.82c-.16-.69.7-.63.78-1,.12-.54-1.45-1.25,0-1.63,1-.28,1.21.82,1.36,1.67.85-.2.7-1.26,1.39-1.54a3.44,3.44,0,0,1-.84,2.65C72.05,195.22,71.27,195.16,70.45,193.82Z"/><path class="cls-1" d="M107.05,192.82c-1.13-.25-1.63-1.73-3-1.51.7-.83,1.65-.37,2.49-.49l1,1.49Z"/><path class="cls-1" d="M62.93,192.32h2.51A1.7,1.7,0,0,1,62.93,192.32Z"/><path class="cls-1" d="M58.05,188.26l-.41-.43a1.63,1.63,0,0,1,.52-.3c.11,0,.3.16.36.29C58.67,188.18,58.39,188.22,58.05,188.26Z"/><path class="cls-1" d="M44.38,175.28v4.66c-1.85,0-1.92-2.44-3.64-2-.64.16-.84.75-.87,1.37l-1,.51c-.34-.58,1.32-1.81-.65-1.92-.52,0-.36-.64-.26-1a.67.67,0,0,1,1-.46c1.71.76,1.87-.71,2.42-1.62A5.23,5.23,0,0,0,44.38,175.28Z"/><path class="cls-1" d="M60.93,173.77c-.4-.07-1,0-1.17-.23-1.12-1.17-2.16-1.53-3.68-.5-.64.43-1.76.17-2.67.22-.1-1.31-2.26-.81-2.07-2.37l.22-.29c1.58-.27,3.15.14,4.73.12.9,1.05,1.61-.62,2.67-.17.72.31,1.75,0,2.47.71C58.94,171.64,60.08,172.74,60.93,173.77Z"/><path class="cls-1" d="M46.39,167.25c.21-.76,1-.88,1.48-1.38a.61.61,0,0,1,.53-.31A2.38,2.38,0,0,1,50,166.63a2.86,2.86,0,0,1,0,1.27c.12,1.13,1.71,1.48,1.5,2.79l-.13.2-.86,1.7c-.89-1.64-3.15-1.87-3.59-3.84A1.73,1.73,0,0,1,46.39,167.25Z"/><path class="cls-1" d="M46.88,161.75c.34.66.69,1.32,1,2a1.73,1.73,0,0,1-.51,2,1,1,0,0,1-1-.47c-.66-1.18-2.33-1.78-2-3.51-.1-.39-.35-.83-.25-1.15s.55-.16.84,0C45.6,161,46.24,161.37,46.88,161.75Z"/><path class="cls-1" d="M47.41,165.72a3,3,0,0,1,.51-2c.95.2,1.92.36,2.86.6,1.13.28,1.12,1,.68,1.88l-.25.24c-1.1.35-1.82-1-2.94-.64a1.87,1.87,0,0,0-.4.07A4.11,4.11,0,0,0,47.41,165.72Z"/><path class="cls-1" d="M46.39,167.25c.59.36.48.95.5,1.5C45.81,168.56,45.57,168.08,46.39,167.25Z"/><path class="cls-1" d="M26.83,155.21h-1a8.41,8.41,0,0,0-1.91-5.64,1.84,1.84,0,0,1-.33-2.27,2,2,0,0,1,2.31-1.06c.79.17,1.7.09,1.71,1.54s1.23-.37,1.86.53c-.39.52-1.46.86-1.13,1.87A10.49,10.49,0,0,1,26.83,155.21Z"/><path class="cls-1" d="M26.83,155.21c.17-1.77.23-3.59,1.52-5l1,0c.62-.34-.69,1.25.44.44a.8.8,0,0,1,1.06.06h0a1.12,1.12,0,0,0,1,.51c.17.77.88,1.29,1,2.1-1,.37-1.32,1.72-2.5,1.9a3.58,3.58,0,0,1-3.51.5Z"/><path class="cls-1" d="M30.84,150.71c-.34-.65-1.62,1.53-1.5-.5C29.89,150.22,30.48,150.12,30.84,150.71Z"/><path class="cls-1" d="M110.06,191.32l1.5.5C110.73,192.65,110.26,192.38,110.06,191.32Z"/><path class="cls-1" d="M102,1.82a50.4,50.4,0,0,1,8,1c.65,1.22-.36,1.4-1.1,1.68a15.26,15.26,0,0,1-4.82.88C103.41,6,103.07,7,102,7.33c-.69,2.14-2.49,3.15-4.28,2.29-.73-.35-1.35-.92-2.24-.79-1.14-.18-2.28-.38-3.42-.54-2.22-.31-3.51.94-4.59,2.65-.92,1.45-2.19,2.31-4,1.67-.16,0-.32-.49-.45-.12-1.14,3.15-3.84,2.16-6.09,2.35a1.77,1.77,0,0,1,2.07-1c1.62.23,2.45-.62,2.94-2-.18-.35-.08-.8.2-.87,2.18-.6,3.54-2.42,5.36-3.55,1.3-.51,2.5-1.27,4-1.23,1.06,0,2.36.65,2.55-1.46.09-1.1,1.8-.91,2.83-1,1.34-.11,1.85.87,2.17,2.25A4.31,4.31,0,0,1,102,1.82Z"/><path class="cls-1" d="M111.07,2.85a3.84,3.84,0,0,1,.48,0c.07.8-.19,1.66,1,2,1.76.58,1.62,2.1,1.53,3.54a1.28,1.28,0,0,1-1,1.29,1.32,1.32,0,0,1-1.48-.55c-1.81-2-3.27-1.9-5.3.11-.42.41-.79.6-1.22.05.11-1-.24-2,.63-2.83C107,4.52,109.76,4.78,111.07,2.85Z"/><path class="cls-1" d="M132.64,7.8c.28.62.5,1.17-.35,1.59-1.35.67.33.84.42,1.45h-5.59c-.93-1.1-1.83-2.24-3.51-2-.12-1.45,2.1-.57,2-2,.65-.6,1.43.1,2.11-.22a1.7,1.7,0,0,1,.64.13C129.64,7.66,131.39,6.74,132.64,7.8Z"/><path class="cls-1" d="M116.1,2.79l1.48,0a15,15,0,0,0,4,1c.51,0,1.21.09,1,1-2.73,1.14-5.32,1.88-7.84-.73-.47-.48-2.18.13-2.69-1.26Z"/><path class="cls-1" d="M105.55,6.82c-.29.82.92,1.93-.5,2.51l-3-2,1.5-2.51C105.11,4.59,106,5.09,105.55,6.82Z"/><path class="cls-1" d="M122.59,4.82c-1.62-.78-3.77-.23-5-2l1,0c2.58-.57,5,.25,7.43.88.51.66.21,1.27-.11,1.87l-.3.27Z"/><path class="cls-1" d="M127.6,6.84c-.68,2-1.32-.63-2,0,0-.33,0-.67,0-1h0C126.69,5.33,127.45,5.49,127.6,6.84Z"/><path class="cls-1" d="M19.31,118.12c-.11.48-.18,1.13-.88.58s-.85-1.5-1.21-2.52c-2.38,2.49-5,4.56-5.55,8.6-.95-2.29-4.06-2.77-2.9-5.66.47-.52.45-1.44,1.33-1.63a2.79,2.79,0,0,0,2.38-2.83c.25-3.09,1-6.24-1.46-8.92a2.27,2.27,0,0,1-.19-2.16A29.23,29.23,0,0,0,11.74,97c1.47-.58,1.44.88,2,1.49a4.75,4.75,0,0,1,.42.58,13.34,13.34,0,0,1,.86,2.19,6,6,0,0,0,1.66-4c.09-.87-.29-2.08,1.16-2.3,1,1.92.64,3.86,0,5.78-.75,2.38.38,6.45,2.45,8,1.74,1.27-.23,2.16-.11,3.24a5.7,5.7,0,0,1-.14.74C19.7,114.5,20.58,116.46,19.31,118.12Z"/><path class="cls-1" d="M19.31,118.12c.26-2-.54-4.08.51-6a3.54,3.54,0,0,1,.59.79,2.86,2.86,0,0,0-.59-.79c-.81-1.23,1-1.86.79-2.38-.32-.86-2.12-.38-2.33-1.91-.38-2.76-2.56-5.26-.64-8.37.67-1.08.15-2.9.17-4.39.13-.87.46-1.45,1.47-1,.36.18.13.63.33.9a3.22,3.22,0,0,1,0-.93.63.63,0,0,1,.68-.58c.76,1.63-.28,3.62,1,5.14,0,1.49,0,3,0,4.47-.23,4.78.44,9.58-.35,14.35-.2,1.17,1.3,1.93.85,3.2a4.2,4.2,0,0,1-1.5,0C20.76,119.48,20.14,118.76,19.31,118.12Z"/><path class="cls-1" d="M10.29,117.62c-.66.36-.41,1.61-1.52,1.5-1-2.54-.31-5.19-.47-7.78-.07-1.07.11-2.17-1-2.85a5.44,5.44,0,0,0-.52-3.95c-.29-2.32.65-4.7-.36-7,3.4.49,2-2.09,2.36-3.52.69-1,1.28-.63,1.84.14a4.92,4.92,0,0,1-.09,3.66c-1.32,3.26-.82,6.67-.94,10a55.69,55.69,0,0,1,1,8.64A1.56,1.56,0,0,1,10.29,117.62Z"/><path class="cls-1" d="M20.32,120.63a1.33,1.33,0,0,1,1.5,0l.43.53c-.15.31-.31.63-.46,1-.74.72.18,1.77-.5,2.51l-.46,0c-.32-.19-1.31.21-.91-.49C20.59,123,20.12,121.79,20.32,120.63Z"/><path class="cls-1" d="M66.43,21.36c0,.17,0,.33,0,.5.28.28.81.43.5,1-2.8-.37-4.45,1-5.55,3.47a1.88,1.88,0,0,1-2.32,1.2c-.83-.28-1.41.42-2.15.35h0a.9.9,0,0,1-.06-.48C57.53,25.1,64,21,66.43,21.36Z"/><path class="cls-1" d="M66.94,22.86c-.16-.33-.33-.67-.5-1h1c.87-1.43,1.93-2.12,3.51-1-.61.71-1.65,1-2,2Z"/><path class="cls-1" d="M87.51,7.83c-1.34,2-3.59,2.81-5.53,4a3.39,3.39,0,0,1-2.32-.63c-1.88-1.58-3.11-1.06-3.57,1.77-.64-1.59-2.45-2.05-2.19-3.79.11-.78.94-.73,1.55-.87.78,1.81,2.28,1.39,3.71,1.47C79.28,8.55,78,9,77.87,8.07c.78-.46,2-.3,2.61-1.25a2,2,0,0,1,2.14-1.67,23,23,0,0,1,4,.06C88.93,6.13,89,6.27,87.51,7.83Z"/><path class="cls-1" d="M71.38,10.59c.71-.21,1,.54,1.5.66s1.19.22,1.36.89c.09.35-.15.59-.54.65A1.77,1.77,0,0,1,72,12.07C71.62,11.65,71.2,11.24,71.38,10.59Z"/><path class="cls-1" d="M66.43,21.36c-.33,0-.74-.12-1,0-3,2-6.35,3.47-8.55,6.48-.54-.24-1.27-1.8-1.48.2a21.06,21.06,0,0,0,0,2.24c-1.32,1.08-.88-2.26-2.11-.55-.51.72-.45,1.86-.77,3.38-1-2-2.47-3-3.65-4.26,0-.94.72-1.38,1.38-1.93,1.43-1.19,3.31-1.89,3.93-4,.45-1.58,2.11-.92,3.2-1,2.1-.17,3.75-.63,4-3.06.89.26,2.34-.78,2.32,1.45C63.73,21.48,65.77,20.29,66.43,21.36Z"/><path class="cls-1" d="M211.79,70.46l.54,1c-.87,2.57,1.36,4.81.8,7.41a8.7,8.7,0,0,0-.31,2.14c-.67.51-1.51,1.15-1.74-.23-.2-1.14-1.29-1.11-1.76-1.81l-1-1c.5-1.34.65-2.81,1.49-4,2.09,0,1.53-1.43,1.38-2.55-.1-.7-.92-1.15-.87-2C211.27,69.12,211.39,70,211.79,70.46Z"/><path class="cls-1" d="M209.83,74l-3.51.49c-.16-1.72,1.56-2.49,2.38-2.7C210.6,71.31,209.49,73.2,209.83,74Z"/><path class="cls-1" d="M211.79,70.46c-.49-.32-1-.64-1.46-1-.47-1-1.61-1.74-1-3.06a1.93,1.93,0,0,1,1.42.64C210.69,68.33,212.29,69.08,211.79,70.46Z"/><path class="cls-1" d="M148.66,181.29c.35,1-.1,2.32,2,1,2.86-1.71,6.32-2.4,9.49,0v2a2.77,2.77,0,0,1-3.4-.37c-2.15-1.56-4.42-1-5.9,1.29a9.87,9.87,0,0,1-1.73,2.09h-4c0-.16.07-.45.14-.46,2.54-.38,2.56-2.19,2.38-4.14C147.6,182,147.79,181.38,148.66,181.29Z"/><path class="cls-1" d="M59.42,15.35c2.5.22,4.61,2.32,7.3,1.52,2.42-.71,4.83.32,7.24,0,1.54.47,2.54-1.21,4-1-.26,2.07-2.52,1.79-3.51,3h-1a6,6,0,0,1-6,0c-.13-1.1-.79-1.13-1.57-.7a3.55,3.55,0,0,1-2.3.1A4.79,4.79,0,0,1,59.42,15.35Z"/><path class="cls-1" d="M74.46,18.85c.28-2,2.74-1.54,3.51-3,1.32.42,3.09-1,4,1a4.2,4.2,0,0,1-.52,2.5A18.07,18.07,0,0,0,74.46,18.85Z"/><path class="cls-1" d="M95.51,12.83H94c.12-.6.23-1.21.36-1.86C95.27,11.37,95.05,12.3,95.51,12.83Z"/><path class="cls-1" d="M23.34,75l-.06,2a1.83,1.83,0,0,0-.46,1.36c0,1.5-.39,2.46-2.22,1.6-.55-.25-.17.59-.45.81a1.38,1.38,0,0,1-.44.52c-1.59.38-2.28,2-3.78,2.63-1.22.47-2.21.42-2.72-.7C12.56,81.81,11.35,81,10.29,80a1,1,0,0,0-.49-1,.33.33,0,0,1-.52,0c0-.59-.24-1-.92-1,2-2.13,3.67-4.88,7.43-3.26,1.42.62.59-2,2-1.82a26.87,26.87,0,0,0,2.68-1.35c1.15-.16,1.8.38,1.8,1.5A2.63,2.63,0,0,0,23.34,75Z"/><path class="cls-1" d="M10.29,80a3.71,3.71,0,0,1,2.93,1.9c1.07,2.1,2.75,2.35,4,.38A2.54,2.54,0,0,1,19.82,81c1.19,3.26-.07,7.59-3,9.27-.91.52-.25.59-.06.81a2.78,2.78,0,0,1,.41,3.45c-.64,1.09-.31,2.27-.4,3.41-.14,1.87-.26,2.09-1.82,3.19-.67-.53-.42-1.6-1.18-2.08h-.5a68.67,68.67,0,0,0-2.46-13.95,2.93,2.93,0,0,1,0-1.47,4.15,4.15,0,0,1,.39-.89c.14-.3.06-.52,0-.19s-.2-.22-.13.12c-.21.29-.4.57-.8.32C10.3,82,10.3,81,10.29,80Z"/><path class="cls-1" d="M10.3,83a1,1,0,0,0,.5-1c.9,0,.81.42.49,1,.78,2.78,1,5.68,1.73,8.49.62,2.38,1.57,5,.28,7.55-.85-.41-.09-2-1.5-2-1,.1-.88-.69-1-1.27s.22-1.33-.52-1.74a1.33,1.33,0,0,0-1.5,0c.18-1.28.21-2.41,1.76-3.19s1-2.53.29-3.68A4.28,4.28,0,0,1,10.3,83Z"/><path class="cls-1" d="M9.28,79H9.8c-.18.88.41,2-.8,2.71C8.74,80.73,8.51,79.84,9.28,79Z"/><path class="cls-1" d="M26.83,155.72c1.1-.69,2.32-.47,3.51-.5.07,2-1.57,3.57-1.63,5.57a.73.73,0,0,1-.86.69c-.55-.1-.44-.61-.51-1-.12-.61.25-1.3-.49-2.12-.07,1.6-.3,3-2,1.37C23.53,157.41,24.74,156.35,26.83,155.72Z"/><path class="cls-1" d="M149.16,187.31a5.8,5.8,0,0,1,4.9-5c.78-.14,1.93-.42,2.35.3.92,1.57,2.33,1.57,3.78,1.66.51.09,1.15.27.71.89-2,2.79-4.32,5.23-8.07,5A4,4,0,0,1,149.16,187.31Z"/><path class="cls-1" d="M154.18,193.82a1.22,1.22,0,0,1-1.57.38c.1-.61.69-.61,1.06-.88Z"/><path class="cls-1" d="M12.83,139.19c-.73-.71-.83-1.46.1-2s1.26.17,1.39,1a1,1,0,0,0-.52,1Z"/><path class="cls-1" d="M21.82,153.22c-.13.38.31,1-.45,1.08-.15,0-.47-.44-.49-.69,0-.88.52-.51.94-.39Z"/><path class="cls-1" d="M210.81,95.1c.18-.9-.4-2,.81-2.78.32,1.18.4,2.15-.83,2.77Z"/><path class="cls-1" d="M209.32,79c1,.17,2.22-.24,2.09,1.55-.1,1.38,1,.18,1.41.49,0,.49,0,1,0,1.47-.58.43-.2,1.77-1.48,1.53l-.51.47A13.61,13.61,0,0,1,209.32,79Z"/><path class="cls-1" d="M211.33,84.05l1.48-1.53C212.67,83.37,213.37,85,211.33,84.05Z"/><path class="cls-1" d="M164.22,175.3l.46-.05c1.07-.46,2.47,1.54,3.36-.43,0-.06.63,0,.64.11.09.48-.7,1.31.49,1.32.76,0,.89.73,1.51,1.14a8.35,8.35,0,0,1,0-2.27c.17-.49.83-1.06,1,.14.41,1.42-.19,2.7-.51,4h0c-.36.59-1.05.16-1.49.5a1.11,1.11,0,0,0-1,.49c-1.18-.39-2,.65-3.23.66-3.05,0-3.57-.34-3.36-3.53,1.24-.82,1.27,0,1.31.93,0,.33.51-.18.24,0A2.49,2.49,0,0,1,164.22,175.3Z"/><path class="cls-1" d="M171.22,179.28c.21-1.33-.5-2.79.51-4h1c.72-1.25,2.82,0,3.23-1.79a1.55,1.55,0,0,1,1.26-.67,1.46,1.46,0,0,1,1,.43c1.66.61,1.12,1.54.25,2.33-.55.49-1.22.81-1.29,1.64a3.22,3.22,0,0,0-2.53,2.07h-.45C173.22,178.33,172.23,176.92,171.22,179.28Z"/><path class="cls-1" d="M162.2,177.78c.49.33.34.82.41,1.3a1.25,1.25,0,0,0,2.14.79c.4-.43.65-.52.88,0,.3.7.71,1.1,1.12.2.89-2,1.34-.26,1.95.18l.76,1.27c-3.17-.07-6.74,1.86-8.77-2.25a6.8,6.8,0,0,1,.57-1C161.49,178,161.68,177.54,162.2,177.78Z"/><path class="cls-1" d="M161.69,178.78a1,1,0,0,1-1,.51,1.06,1.06,0,0,1-1-.5c-1-.36-2.22,0-3-1h-.49l-.52-.06c.67-2,2.38-1.27,3.7-1.34C160.89,176.32,161.33,177.58,161.69,178.78Z"/><path class="cls-1" d="M156.68,177.8c1,.33,2.14.26,3,1l-1.5.5C157.21,179.27,157.06,178.42,156.68,177.8Z"/><path class="cls-1" d="M169.72,179.78c.36-.57.95-.48,1.49-.5C171.1,180.61,170.37,180.06,169.72,179.78Z"/><path class="cls-1" d="M18.31,132.16c-1.16-.14-2,.56-3,1a7.67,7.67,0,0,0-.9.8c-.28.32-.49.72-1,.42s-.34-.65-.2-1.08c.93-2.88.18-3.94-2.93-4.15,1.42-.93,2.56-1.51,4.08.28C15.32,130.56,17.83,130,18.31,132.16Z"/><path class="cls-1" d="M23.28,129.1c-.6.76-1.66.87-2.1,2-.34.89-1.4,2.14-2.87,1,1.1-.1,1.76-.48,1.69-1.81-.09-1.73.36-2.9,2.32-1.35C22.53,129.18,23,129.08,23.28,129.1Z"/><path class="cls-1" d="M21.29,124.62c.31-.81-.86-1.91.5-2.51C21.68,123,22.18,123.92,21.29,124.62Z"/><path class="cls-1" d="M32.86,40.42c1.21,0,2.37-.07,2.55,1.61.05.5,3.3.8,4.14.45A5.71,5.71,0,0,1,40.9,42a2,2,0,0,1,1.88,1c.34.55-.51,1-.9,1.44-1.71,1.33-4,.5-5.84,1.57-1.34.77-2.15,1.36-2.44,3-.24,1.33-.23,2.84-1.25,4-1.74-.28-3.19-1.52-5-1.5,1-2.69,2-5.34,4.24-7.29A3.69,3.69,0,0,0,32.86,40.42Z"/><path class="cls-1" d="M32.86,40.42c.66.65,1.6,1.57.73,2.3-2.85,2.39-4,6-6.25,8.7-3.48-.51-3.86-1.45-2-4.93,2.09,1,.74-.78,1-1.24a12.55,12.55,0,0,1,3-3.85c.24-.34.43-.79,1-.51C31.21,40.93,31.81,39.44,32.86,40.42Z"/><path class="cls-1" d="M32.35,52.92c-.29-2.08,1.19-3.91.82-6-.07-.4.17-.81.42-.79,2.26.17,3.83-2.56,6.3-1.47.65.29,1.09,0,1.35-.66.1-.27-.42-1,.41-.73.18.06.16.75.23,1.14-1.06,1.13-2.34,2.06-3,3.5-.44.21-.57,1-1.41.48a1.27,1.27,0,0,0-1.9,1c0,1.74-1,2.67-2.19,3.53Z"/><path class="cls-1" d="M17.8,58.47c-.25-.55-1.8-1.26.19-1.52a1.64,1.64,0,0,0,1.33-1c.12-.12.25-.25.41-.24,3.24.11,3.24.11,3.61-2.78,1.58-.17,2.2,2.2,4,1.52A2,2,0,0,1,29,55.3c-.24.58-.74.62-1.24.67s-.84.19-.86.71.57.44.9.56a3.35,3.35,0,0,1,2,1.73,3.32,3.32,0,0,1-1.63,3.25c-1.06-.34-.81-1.23-.81-2s.21-1.3-.49-1.73c-1.2-1.19-2.43-2-4-.51-1.07,1-2.64-.79-3.66.61C18.73,59.09,18.18,59.7,17.8,58.47Z"/><path class="cls-1" d="M23.34,52.93c-.2,1,1.44,1.92.12,3.16-1.53,1.44-2.77,0-4.14-.14-.86-1.37-1.76-.07-2.63,0A6.32,6.32,0,0,1,18.83,53c.56,1.54,1,.64,1.48-.06C21.32,52,22.32,50.32,23.34,52.93Z"/><path class="cls-1" d="M177.23,173.24a1.11,1.11,0,0,0-1,.52c-.26.3-.42.8-1,.5-1.21-.79-1.91-2.19-3.49-2.64-1.16-.32-.65-1.49-.53-2.36l2.53-1c1,1.1,1,1.1.33,2.07,1.16-.22,2-.67,1.13-2.06l3.41,0c.75,0,1.51,0,1.62-1l1-.49c1,1.19.14,2.07-.52,3a1.09,1.09,0,0,0-.51,1A7.87,7.87,0,0,0,177.23,173.24Z"/><path class="cls-1" d="M175.24,174.26l1-.5c-.1.47.28,1.37-.68,1.12s-1.87.32-2.81.39C173.06,173.66,174.37,174.5,175.24,174.26Z"/><path class="cls-1" d="M87.51,7.83c.18-.76,1-1.7-.52-2-.56-.2,1.64-1.18-.31-1.06a.75.75,0,0,1-.75-1h0c.81,0,1.63,0,2.44-.15.4-.06.8-.25,1.15.07C90.72,4.81,92,4.5,93,2.81c2.9-1.39,6-.93,9-1-1.13,1.35-2.8,2.4-2.21,4.62.12.44-.49.87-1.06.79s-.34-.6-.29-1c.14-.92-.14-1.89-1-2a4.69,4.69,0,0,0-2.93.49C93.37,5.44,95,6,95,6.88A15.44,15.44,0,0,0,87.51,7.83Z"/><path class="cls-1" d="M105.55,6.82a2.09,2.09,0,0,0-2-2c1.61-.59,3.38.09,5-.74.67-.33,1.41-.33,1.51-1.25h1C110.55,3.91,106.7,6.68,105.55,6.82Z"/><path class="cls-1" d="M205.39,59.48l.44.41c0,.35-.31.42-.53.58a3,3,0,0,1-4-2.34c0-.64.18-.85.82-.94s1.56,0,1.39.5C202.93,59.73,204.63,59.06,205.39,59.48Z"/><path class="cls-1" d="M202.06,61.6c-.87,0-1.28-.55-1.62-1.39C201.61,60.05,201.79,60.9,202.06,61.6Z"/><path class="cls-1" d="M205.3,60.47l.53-.58c.86.33,1.53.73.54,1.66Z"/><path class="cls-1" d="M19.31,70.5a6.74,6.74,0,0,0-3.16,1.35A4.12,4.12,0,0,1,10.79,71a3,3,0,0,0,.93.35c1.07,0,2.28,1.17,3.07.38,1.05-1-1.4-1.47-.72-2.87.79,0,1.76,1.21,2.7.24.63-.65-.18-1.43,0-2.14l.31-.12c.82.45,1.76-.34,2.57.25C20.51,68.35,21.85,69.63,19.31,70.5Z"/><path class="cls-1" d="M16.8,67c-2.75-1.84-1-3.68,0-5.52l.33-.13a1,1,0,0,1,.52.46,2.77,2.77,0,0,1,0,2.06,1.46,1.46,0,0,0-.06,1.75A1.14,1.14,0,0,1,16.81,67Z"/><path class="cls-1" d="M12.47,66.79c-.17-1,0-1.68.81-1.91.16,0,.63.39.65.63C14,66.59,13.12,66.41,12.47,66.79Z"/><path class="cls-1" d="M10.83,69c.14-.35.27-.7.42-1,.69,1.17.66,1.31-.45,2Z"/><path class="cls-1" d="M17.31,61.47h-.5L15.32,61l0,0c-.07-.7.4-.84.92-.79A1,1,0,0,1,17.31,61.47Z"/><path class="cls-1" d="M17.31,61.47c-.51-.81-1-1.48-2-.51-.89-1-.35-1.57.66-1.94.6-.22,1.23-.37,1.84-.55.81.77.91.1,1-.51,2.37,0,4.72.67,7.11.25.46-.08,1,.13,1.4-.25,1.91,1.12-.1,2.73.5,4,.62,1.06-.2,1.5-.9,1.43-1.84-.17-3.65.29-5.45.19.65,1.09,1.43,2.24.55,3.65C21,68.64,22,70.81,20.32,72c-.51,1.17-1.54,1-2.5,1,.37-.91,1.84-1.16,1.49-2.49,2.21-1.17-.09-2.34,0-3.51-1.39-.24-1.6-1.28-1.58-2.41s.28-2.15-.42-3.11Z"/><path class="cls-1" d="M30.33,40.89l-1,.51a1.14,1.14,0,0,0-1-.5l1-1.16Z"/><path class="cls-1" d="M21.82,67c.47-1.49-.83-2.49-.93-3.91.7-.58,2.15,1.08,2.76-.76.22-.66.9.11,1.39.32,1,.42,2.21,1,2.8-.66,1.36-.53,1.25-2.06,2-3,.36.22,1.84-.48.82.87a5.84,5.84,0,0,0-1.41,3A1.43,1.43,0,0,0,28,64.29c.32,3.13-2.47,4.85-2.84,7.37C23,72,27.43,68.76,23.81,70,23.22,68.94,20.81,69.1,21.82,67Z"/><path class="cls-1" d="M14.79,138.17c.39-.91,1.17-1,2-1,2.28.36,4.24-1.33,6.51-1a4.13,4.13,0,0,1-3.83,2C17.93,138.16,16.36,138.17,14.79,138.17Z"/><path class="cls-1" d="M67.44,18.86h6c-.36,1-1.41,1.26-2,2l-.51,0a4.16,4.16,0,0,0-3.51,1Z"/><path class="cls-1" d="M134.64,4.29a10.75,10.75,0,0,0,1.22.81c2.14,1,.75,1.57-.3,2.15-1.67.11-3.11-1.37-4.85-.69a3.2,3.2,0,0,1-2.51-.36,2.42,2.42,0,0,1-.83-.73c-.52-.94-.76-1.83.5-2.42a10.92,10.92,0,0,1,2.06,0,1.08,1.08,0,0,1,.56.4C131.76,4.31,133.3,3.81,134.64,4.29Z"/><path class="cls-1" d="M128.13,5.79c1-.15,1.73.48,2.58.77.57.53,1.88-.09,1.93,1.25-.89-.5-1.76.14-2.64,0s-1.74.24-1.89-1A.69.69,0,0,1,128.13,5.79Z"/><path class="cls-1" d="M3.33,68.92a2.1,2.1,0,0,1,2.23,2c.1,1.18-.8,1-1.47,1.11-1.69.2-1.62-.88-1.4-2l.24-.19c.32-.16.24-.46.26-.73Z"/><path class="cls-1" d="M85.93,3.76,88.15,5,87,5.82c-2.16.38-4.58-.92-6.51,1-.57-.48-1.6-.71-1-1.84l1-.24Z"/><path class="cls-1" d="M82,185.29H80C80.66,183.41,81.31,184.42,82,185.29Z"/><path class="cls-1" d="M161.69,178.78c-1.85-2.27-3.41-2.54-6-1l-1.47-.89c3.15-1.75,6.6-1.56,10-1.55.07,1.22-.83,2.27-.49,3.48-.95.12,0-2.07-1.53-1A1,1,0,0,0,161.69,178.78Z"/><path class="cls-1" d="M180.74,169.75a8.9,8.9,0,0,0,.52-3c1.38.49,3.77-.45,3.45,2.44l-.93.58C182.78,168.78,181.76,169.33,180.74,169.75Z"/><path class="cls-1" d="M177.23,173.24c.22-1.77,1-2.85,3-2.49-.21,1.19-1.46,1.55-2,2.49Z"/><path class="cls-1" d="M54.46,169.16c-1.7-.46-3.2-1.66-5.09-1.48l.47-.85c.32-.64,1-.11,1.45-.5l.17-.13c1.69,0,2.52,1.49,3.86,2.08.36.12.37.27,0,.46Z"/><path class="cls-1" d="M55.37,168.74a3.8,3.8,0,0,0,0-.46l2-.4C57.12,169.21,56.31,169.11,55.37,168.74Z"/><path class="cls-1" d="M21.82,67c-.26,1.62,2.2,1.42,2,3-1.24,1,.34,2.53-.67,3.82-.43.55,1.34-.17,1.65.71-.33.6-.91.49-1.45.51-1.19.09-1.62-.52-1.52-1.63s-.52-1.45-1.5-1.39a10.68,10.68,0,0,0,.51-3.37C20.76,67.88,20.77,67.1,21.82,67Z"/><path class="cls-1" d="M128.08,3.3c-1.33.39-.56,1.28-.48,2-1,.53-1.49.11-1.52-1l-7.5-1.54c1.76-.67,3.51-1.33,5.46-.77,1.17.34,2.38.64,3.51-.16l.6,0c.34.2.68.41.62.89C128.63,3.08,128.32,3.14,128.08,3.3Z"/><path class="cls-1" d="M134.64,4.29c-1.52-.33-3.4,1-4.56-1-.08-.43,0-.64.5-.45C131.72,3.93,133.43,3.41,134.64,4.29Z"/><path class="cls-1" d="M130.58,2.84l-.5.45h-.22l-.22,0a1,1,0,0,1-1-.53l-.46-.85C129,2.09,130,2,130.58,2.84Z"/><path class="cls-1" d="M179.75,167.26q-.81,1-1.53-.06C178.76,166.46,179.24,167.12,179.75,167.26Z"/><path class="cls-1" d="M76.86,196.81c-.11.07-.32.3-.46.26-.5-.14-.41-.61-.42-1s.34-.14.45-.12C76.8,196,76.92,196.34,76.86,196.81Z"/><path class="cls-1" d="M13.8,99.07c1.12,0,.84,1.05,1.25,1.63,1.13-.31,1.24-1.17,1.26-2.11,0-1.74-.13-3.46.71-5.14.5-1-.4-1.85-1.24-2.46a1,1,0,0,1-.42-1.1c.37-1,.66.16,1.05.1s1-.12,1.05-.5c.3-2.62,3.47-4.47,2-7.56-.1-.2.22-.6.35-.91h0c.51-.25,1,.07,1.61-.18,1.86-.82,1.08.47.92,1.24,0,.65.49,1.31,0,2-.61,1.44-.53,3-1,4.5,0,1.16,0,2.31-.07,3.46-1,.13-.2,1.3-1,1.56-.76.47-.31,1.34-.75,2.2-.28-1.32-.76-2.06-1.75-.7-.82,2.6-.37,5.68-3.08,7.57C14,101.69,14.35,100.24,13.8,99.07Z"/><path class="cls-1" d="M20.31,93.56c.07-.68.13-1.36.2-2l.75.49a13.45,13.45,0,0,0,0,6.61c-.81.29-1-.07-1-.83C20.34,96.38,20.31,95,20.31,93.56Z"/><path class="cls-1" d="M21.33,88.54c-.32-1.58.69-3.08.14-4.77-.18-.56.5.33.86.27-.06.86-.13,1.73-.19,2.59C21.56,87.14,22.1,88.12,21.33,88.54Z"/><path class="cls-1" d="M175.21,168.28c.3.7,1,.94,1.87,1.22-1.51.41-2.34,2-4.09,1,1.26-.46,1.34-1.27.76-2.24Z"/><path class="cls-1" d="M22.35,82.08a2.59,2.59,0,0,0-.11-.94c-.25-.44-.34,0-.4.15-1,2.38-1.36-.11-2-.27-.05-.86-.1-1.73-.14-2.58.71-.15.74.39.94.68s.48.94,1.1.77.58-.71.6-1.2c0-.72-.12-1.55,1-1.67v2c-.53.76.11,1.74-.45,2.5Z"/><path class="cls-1" d="M22.83,81.53c.1-.84-.32-1.78.45-2.5C23.2,79.88,23.52,80.79,22.83,81.53Z"/><path class="cls-1" d="M3.19,69.13c.26.41,1.43.16.92,1-.35.61-.8-.08-1.18-.3C2.89,69.58,2.84,69.28,3.19,69.13Z"/><path class="cls-1" d="M51.29,166.33c-.34.58-1,.34-1.45.5l-1.57-1C49.59,164.19,50.24,166.4,51.29,166.33Z"/><path class="cls-1" d="M126.08,4.34a1.52,1.52,0,0,0,1.52,1l.53.49c0,.35,0,.7,0,1h-.51a2.71,2.71,0,0,0-2-1C125.61,5.28,125.5,4.69,126.08,4.34Z"/><path class="cls-1" d="M10.29,94.06c.79-.7.9-.09,1,.53.13.83-.31,1.78.52,2.48,1.11,2.05.14,4-.24,6-.22,1.2-.87,2.32,1,3.26.84.42.91,2.73,1,4.21a17.29,17.29,0,0,1-.42,4.16c-.44,2.5-.79,3.05-2.61,3.89-.31.14-.19-.63-.27-1s0-.67,0-1c-.33-3-.28-6-1-9-.28,0-.9.18-.8,0,1.47-2.64-.4-5.59.82-8.23A9.68,9.68,0,0,0,10.29,94.06Z"/><path class="cls-1" d="M19.8,112.06c1.1.33,1.1.91.87,1.62C20,113.36,19.92,112.72,19.8,112.06Z"/><path class="cls-1" d="M9.29,107.6c1.41,2.88.91,6,1,9C9.79,113.62,9.07,110.66,9.29,107.6Z"/><path class="cls-1" d="M11.29,83a1,1,0,0,0-.49-1c0-.3.07-.78.42-.63a1.73,1.73,0,0,1,.87,1C12.23,82.92,11.68,83,11.29,83Z"/><path class="cls-1" d="M27.34,58c-2.11,1.64-4.42,1.19-6.68.51A5.8,5.8,0,0,0,18.83,58c.08-.14.16-.41.24-.41,2.13,0,4.17.06,6.08-1.43C25.82,55.6,26,58,27.34,58Z"/><path class="cls-1" d="M17.31,61.47c1.25.58,1,1.72,1,2.74a2.9,2.9,0,0,0,1,2.78c-.84,1.19-1.67,1.18-2.5,0,.17-.5.33-1,.5-1.5a1.07,1.07,0,0,1,0-1.5Z"/><path class="cls-1" d="M17.31,64v1.5c-.51-.07-1-.2-.91-.87C16.47,64.09,16.9,64,17.31,64Z"/><path class="cls-1" d="M128.61,2.74l1,.53c-.51.81-1,.21-1.56,0C128.26,3.11,128.44,2.93,128.61,2.74Z"/><path id="buddha" d="M162.36,183.87a6.51,6.51,0,0,1-1,0h1a31.83,31.83,0,0,0,9.11-2.21c6.88-2.57,5-10.72,2.8-14.56s-17.12-5.59-18.87-7.11-4.78-2.68-4.66-5.7-1.45-36.19-1.45-36.19A11.85,11.85,0,0,0,142,107.19c-4.23-1.64-18.6-3.33-20.28-5.44s-.65-5.39-.35-7.2,1.12-1.43,1.64-1.34.43,2.59.91,4.92,1.77,1.16,1.77,1.16c.64.09-.05-2.93-.31-5.61s1.82-6.56,3.11-8.76a6.21,6.21,0,0,0,.56-5.31c-.39-1.25-1.64-.6-1.64-.6s.13-.56.32-1.34.07-.56-.32-1.12-.17-.82.11-1.25.28-.43,0-1.25-.37-1.17-.11-1.42,0-.44-.43-1.34-.56-1.43-.35-1.77,0-1-.69-1.73-.9-1.21-.82-1.55-.13-.95-1-1.77-.69-.22-.69-.65-.21-.21-.56-.43-.38-.13-.77-.34-.13-.39-.43-1.38-.44-.48-.57-.91a2.48,2.48,0,0,0-.64-1.34,9.48,9.48,0,0,1-1.51-1.9c-.69-1.21-2.16-1-2.07-1.59s.9-1.3,1.55-3.54-.35-2.07-1.16-2.72,0-2.37,0-3.67-.6-.73-1.07-1.55-.44-6-.87-6.13-.52,0-.47-2-1-1.94-1,0,0,1.82-.48,2-.39,5.31-.86,6.13-1.12.26-1.08,1.55.82,3,0,3.67-1.81.47-1.16,2.72,1.46,2.89,1.55,3.54-1.38.38-2.07,1.59a9.85,9.85,0,0,1-1.51,1.9,2.52,2.52,0,0,0-.65,1.34c-.13.43-.26-.09-.56.91s0,1.16-.43,1.38-.43.13-.78.34-.56,0-.56.43.13-.17-.69.65-1,1.42-.95,1.77-.17.86-.82,1.55-.91,1.38-.69,1.73.13.86-.35,1.77-.69,1.08-.43,1.34.17.6-.11,1.42-.28.82,0,1.25.5.69.11,1.25-.51.35-.32,1.12.32,1.34.32,1.34-1.25-.65-1.64.6a6.21,6.21,0,0,0,.56,5.31c1.3,2.2,3.37,6.09,3.11,8.76s-1,5.7-.3,5.61c0,0,1.29,1.17,1.77-1.16s.39-4.84.9-4.92,1.34-.48,1.64,1.34,1.34,5.09-.34,7.2-16,3.8-20.28,5.44a11.84,11.84,0,0,0-7.34,10.91S77.88,151.26,78,154.29s-2.91,4.19-4.66,5.7-16.65,3.26-18.86,7.11-4.08,12,2.79,14.56a31.8,31.8,0,0,0,9.12,2.21h1a6.35,6.35,0,0,1-1,0Zm-27.57-51.78c1.74-4.09,3.72-5.67,4.39-4.46.93,1.67.56,22.5,1.82,30.2.46,2.8,1.26,5.45.87,6.12s-4.51.62-5.37-.88a27.32,27.32,0,0,1-1.76-7,119.26,119.26,0,0,1-1.53-13.37C132.87,135.49,133.85,134.3,134.79,132.09ZM85.94,157.83c1.26-7.7.89-28.53,1.82-30.2.67-1.21,2.65.37,4.39,4.46.94,2.21,1.93,3.4,1.58,10.64A116.91,116.91,0,0,1,92.2,156.1a27.32,27.32,0,0,1-1.76,7c-.86,1.5-5,1.56-5.37.88S85.48,160.63,85.94,157.83Z"/><rect x="76.57" y="182.87" width="70" height="8"/></g></g></svg>